<svg width="48" height="48" viewBox="0 0 48 48" fill="none" xmlns="http://www.w3.org/2000/svg">
<path d="M46.5034 39.383L39.7034 32.7342C40.2034 31.5609 40.6034 30.2899 40.7034 29.0188C41.0034 25.6944 40.0034 22.3701 37.8034 19.8279C36.6034 18.3613 35.1034 17.2857 33.4034 16.5035V11.4192C33.4034 9.07261 31.4034 7.1171 28.9034 7.1171H26.2034V5.74825C26.2034 4.28162 25.0034 3.10831 23.4034 3.10831H20.4034C19.9034 1.54391 18.4034 0.370605 16.7034 0.370605C14.9034 0.370605 13.5034 1.54391 13.0034 3.01054H10.0034C8.40343 3.10831 7.20343 4.28162 7.20343 5.74825V7.1171H4.50343C2.00343 7.1171 0.00343052 9.07261 0.00343052 11.4192V43.0006C-0.0965695 45.3472 2.00343 47.3028 4.50343 47.3028H28.9034C31.4034 47.3028 33.4034 45.3472 33.4034 42.9029V39.7741L39.7034 45.9339C41.5034 47.6939 44.5034 47.7916 46.4034 45.9339C48.3034 44.0762 48.4034 41.1429 46.5034 39.383ZM36.3034 21.0012C38.1034 23.1523 39.0034 25.9877 38.7034 28.7254C38.3034 32.7342 35.7034 36.0586 32.1034 37.5252H32.0034C30.4034 38.2097 28.7034 38.4052 26.8034 38.3074C20.8034 37.7208 16.5034 32.5387 17.1034 26.6722C17.4034 23.9345 18.7034 21.4901 20.7034 19.7301L20.8034 19.6323C23.0034 17.7746 26.0034 16.7969 29.0034 17.0902C30.1034 17.188 31.1034 17.4813 32.1034 17.8724C33.7034 18.6546 35.1034 19.6323 36.3034 21.0012ZM9.20343 5.74825C9.20343 5.35715 9.60343 5.06382 10.0034 5.06382H13.9034C14.5034 5.06382 14.9034 4.67272 14.9034 4.08607C14.9034 3.10831 15.7034 2.42389 16.7034 2.42389C17.7034 2.42389 18.6034 3.20609 18.6034 4.08607C18.6034 4.67272 19.0034 5.06382 19.6034 5.06382H23.5034C23.9034 5.06382 24.3034 5.35715 24.3034 5.74825V10.4415C24.3034 10.8326 23.9034 11.1259 23.5034 11.1259H10.0034C9.60343 11.1259 9.20343 10.8326 9.20343 10.4415V5.74825ZM28.9034 45.3472H4.50343C3.10343 45.3472 1.90343 44.2717 1.90343 43.0006V11.4192C1.90343 10.1481 3.00343 9.07261 4.40343 9.07261H7.10343V10.4415C7.10343 11.9081 8.30343 13.0814 9.90343 13.0814H23.4034C24.9034 13.0814 26.2034 11.9081 26.2034 10.4415V9.07261H28.9034C30.3034 9.07261 31.4034 10.1481 31.4034 11.4192V15.7213C30.7034 15.5258 29.9034 15.3302 29.1034 15.3302C25.5034 14.9391 22.2034 16.1124 19.6034 18.1657H7.60343C7.00343 18.1657 6.60343 18.5568 6.60343 19.1435C6.60343 19.7301 7.00343 20.1212 7.60343 20.1212H17.7034C17.0034 21.0012 16.5034 21.8812 16.0034 22.9567H7.70343C7.10343 22.9567 6.70343 23.3478 6.70343 23.9345C6.70343 24.5211 7.10343 24.9122 7.70343 24.9122H15.5034C15.4034 25.4989 15.2034 26.0855 15.2034 26.6722V27.7477H7.70343C7.10343 27.7477 6.70343 28.1388 6.70343 28.7254C6.70343 29.3121 7.10343 29.7032 7.70343 29.7032H15.2034C15.3034 30.681 15.6034 31.5609 15.9034 32.5387H7.70343C7.10343 32.5387 6.70343 32.9298 6.70343 33.5164C6.70343 34.1031 7.10343 34.4942 7.70343 34.4942H16.9034C17.5034 35.5697 18.3034 36.4497 19.2034 37.2319H7.70343C7.10343 37.2319 6.70343 37.623 6.70343 38.2097C6.70343 38.7963 7.10343 39.1874 7.70343 39.1874H22.2034C23.6034 39.8718 25.0034 40.2629 26.6034 40.4585C28.2034 40.654 29.8034 40.4585 31.4034 40.0674V43.0984C31.5034 44.1739 30.3034 45.3472 28.9034 45.3472ZM45.1034 44.565C44.0034 45.6406 42.3034 45.6406 41.2034 44.565L34.8034 38.4052C36.4034 37.4274 37.7034 36.1564 38.7034 34.592L45.0034 40.7518C46.2034 41.8273 46.2034 43.4895 45.1034 44.565Z" fill="#FFCC00"/>
</svg>
