<svg width="51" height="50" viewBox="0 0 51 50" fill="none" xmlns="http://www.w3.org/2000/svg">
<path fill-rule="evenodd" clip-rule="evenodd" d="M48.6488 48.4844H37.3816V46.0145H48.6488V48.4844ZM40.5222 43.4732C40.5158 43.3954 40.5028 43.3187 40.4704 43.246C39.253 40.2559 39.0005 36.7895 39.6999 32.649C39.7252 32.5025 39.7061 32.3518 39.6451 32.2159C39.584 32.08 39.4837 31.9649 39.3566 31.8849L34.5584 28.8832C33.6722 28.3277 33.9218 27.0024 34.9275 26.781C35.2383 26.7134 35.5492 26.767 35.8146 26.931L41.5907 30.5467C42.1038 30.8652 42.7757 30.4994 42.7757 29.9057V18.4018C45.1197 21.3415 45.7544 26.7715 46.3243 31.6403C46.6091 34.0354 46.8747 36.2985 47.3215 38.2296C47.4122 38.67 47.5028 42.1563 47.3085 44.4997H40.6L40.5222 43.4732ZM12.0953 41.1782H38.2235C37.673 38.7053 37.6342 35.9698 38.1069 32.8973L33.736 30.1625C32.4734 29.3742 32.0978 27.7195 32.9007 26.4759C33.6962 25.2353 35.3765 24.8628 36.6371 25.6517L41.2346 28.5282V7.97459H37.7638C36.0672 7.97459 34.6816 6.6123 34.6816 4.93778V1.51297H10.6319C9.77714 1.51297 9.08421 2.19598 9.08421 3.03488V28.5284L13.6883 25.6519C14.297 25.2708 15.0222 25.1469 15.728 25.3033C18.0903 25.8245 18.6096 28.8969 16.5893 30.1625L12.2184 32.8973C12.691 35.9698 12.6522 38.7053 12.0953 41.1782ZM3.01683 44.4997C2.81607 42.1563 2.90674 38.6702 3.00384 38.2296C3.45063 36.2985 3.71608 34.0354 3.99464 31.6403C4.5645 26.7714 5.20549 21.3414 7.54964 18.4018V29.9058C7.54964 30.4966 8.21982 30.8665 8.7282 30.5468L14.5107 26.9311C15.3606 26.3962 16.5105 27.1243 16.2784 28.1587C16.2136 28.462 16.0259 28.7186 15.7668 28.8833L10.9686 31.885C10.7096 32.0478 10.5736 32.3491 10.6189 32.6491C11.3247 36.7896 11.0721 40.256 9.85483 43.2461C9.82273 43.3181 9.80304 43.3949 9.79656 43.4734L9.72532 44.4999L3.01683 44.4997ZM12.9371 48.4844H1.67646V46.0145H12.9372L12.9371 48.4844ZM36.2161 2.58547L40.1467 6.45913H37.7637C36.909 6.45913 36.216 5.77736 36.216 4.9379L36.2161 2.58547ZM48.8495 44.5106C49.0373 42.0944 48.966 38.5316 48.8171 37.8945C47.3109 31.4101 47.8764 20.3594 42.7756 16.2415V7.2168C42.7756 7.0164 42.6915 6.82358 42.549 6.68118L35.9958 0.223405C35.9247 0.152561 35.84 0.0963383 35.7466 0.0579907C35.6532 0.0196431 35.5531 -6.75032e-05 35.452 1.73687e-07H10.6319C8.93528 1.73687e-07 7.54964 1.35969 7.54964 3.03488V16.2416C2.45352 20.3554 3.00189 31.4147 1.508 37.8945C1.35907 38.5316 1.28782 42.0943 1.47559 44.5106C0.72451 44.5974 0.141663 45.2288 0.141663 45.9936V48.5056C0.141663 49.3291 0.821613 50 1.65693 50H12.9629C13.7982 50 14.4782 49.3291 14.4782 48.5056V45.9936C14.4782 45.1694 13.7982 44.4997 12.9629 44.4997H11.2663L11.3246 43.7005C11.4541 43.3705 11.5706 43.034 11.6873 42.6938H38.6378C38.7485 43.0329 38.8694 43.3686 39.0004 43.7005L39.0587 44.4997H37.3621C36.5268 44.4997 35.8468 45.1694 35.8468 45.9936V48.5056C35.8468 49.3291 36.5268 50 37.3621 50H48.6681C49.5034 50 50.1833 49.3291 50.1833 48.5056V45.9936C50.1834 45.2288 49.6007 44.5974 48.8495 44.5106ZM27.8757 22.5403L29.1578 23.944C29.4416 24.2586 29.924 24.2798 30.2392 24.0041L33.4315 21.1959C33.7488 20.9169 33.7812 20.4381 33.4962 20.126C33.2113 19.8138 32.7257 19.7857 32.4083 20.0647L29.7859 22.3706L29.0218 21.5285C28.8852 21.3788 28.694 21.2887 28.49 21.2778C28.2861 21.2669 28.0861 21.3362 27.9339 21.4704C27.6233 21.7507 27.5909 22.2294 27.8757 22.5403ZM33.6778 37.1208C33.6778 37.0212 33.6578 36.9225 33.6191 36.8304C33.5803 36.7383 33.5235 36.6547 33.4519 36.5843C33.3803 36.514 33.2954 36.4582 33.2019 36.4202C33.1084 36.3822 33.0083 36.3628 32.9072 36.363H17.4116C16.9907 36.363 16.6475 36.7027 16.6475 37.1208C16.6475 37.539 16.9908 37.8779 17.4116 37.8779H32.9072C33.3345 37.8779 33.6778 37.539 33.6778 37.1208ZM27.8757 15.6108C27.5909 15.2999 27.6232 14.8212 27.934 14.5409C28.0864 14.4069 28.2864 14.3378 28.4902 14.3488C28.6941 14.3598 28.8853 14.45 29.0219 14.5996L29.786 15.441L32.4084 13.1351C32.7257 12.8567 33.2115 12.8843 33.4963 13.1964C33.7813 13.5086 33.7489 13.9874 33.4316 14.2663L30.2393 17.0757C29.9239 17.3498 29.4418 17.33 29.158 17.0157L27.8757 15.6108ZM16.7122 32.5749C16.7122 32.4752 16.7322 32.3766 16.7709 32.2845C16.8097 32.1924 16.8665 32.1088 16.938 32.0384C17.0096 31.968 17.0946 31.9123 17.188 31.8743C17.2815 31.8363 17.3817 31.8169 17.4827 31.8171H32.0329C32.2368 31.8171 32.4323 31.897 32.5764 32.0391C32.7206 32.1812 32.8016 32.3739 32.8016 32.5749C32.8016 32.7759 32.7206 32.9686 32.5764 33.1107C32.4323 33.2529 32.2368 33.3327 32.0329 33.3327H17.4827C17.3817 33.3329 17.2815 33.3135 17.188 33.2755C17.0946 33.2375 17.0096 33.1817 16.9381 33.1114C16.8665 33.041 16.8097 32.9573 16.771 32.8653C16.7322 32.7732 16.7123 32.6746 16.7122 32.5749ZM27.8757 8.68253C27.5909 8.3703 27.6232 7.89155 27.934 7.61139C28.0864 7.47739 28.2864 7.40835 28.4902 7.41934C28.6941 7.43034 28.8853 7.52049 29.0219 7.67007L29.786 8.51271L32.4084 6.20627C32.7257 5.92792 33.2115 5.95477 33.4963 6.26688C33.7813 6.57899 33.7489 7.0591 33.4316 7.33677L30.2393 10.1462C29.9239 10.4201 29.4419 10.4005 29.158 10.0862L27.8757 8.68253ZM24.6898 22.6808H14.8731V17.7232C14.8731 15.0553 17.0748 12.8843 19.7815 12.8843C22.4882 12.8843 24.6898 15.0553 24.6898 17.7232V22.6808ZM17.308 8.92893C17.308 7.58318 18.4153 6.48847 19.7816 6.48847C21.148 6.48847 22.2552 7.58329 22.2552 8.92893C22.2552 10.274 21.1478 11.3681 19.7816 11.3694C18.4153 11.3681 17.308 10.274 17.308 8.92893ZM26.2245 23.4385C26.2245 23.8574 25.8814 24.1963 25.4605 24.1963H14.1026C13.6817 24.1963 13.3386 23.8574 13.3386 23.4385V17.7232C13.3386 15.139 14.9056 12.913 17.159 11.9197C16.3107 11.1946 15.7668 10.1228 15.7668 8.92893C15.7668 6.74824 17.567 4.9729 19.7816 4.9729C21.9961 4.9729 23.7964 6.74824 23.7964 8.92893C23.7964 10.1226 23.2525 11.1945 22.4042 11.921C24.6511 12.913 26.2247 15.139 26.2247 17.7232L26.2245 23.4385Z" fill="#0051BA"/>
</svg>
