<svg width="47" height="47" viewBox="0 0 47 47" fill="none" xmlns="http://www.w3.org/2000/svg">
<path d="M28.125 46.2719C27.9587 46.2719 27.7968 46.22 27.6628 46.1239C27.5287 46.0277 27.4296 45.8922 27.3797 45.7372C27.3344 45.6379 27.0625 45.4133 26.875 45.3048C24.5469 43.9711 21.9156 38.074 21.6234 37.4064L19.1531 28.0841C19.1106 27.9236 19.1227 27.7539 19.1875 27.6007C19.2523 27.4474 19.3664 27.319 19.5125 27.2347C21.0359 26.3593 22.2094 26.4372 22.9312 26.6572C23.9422 26.9674 24.7734 27.7526 25.3297 28.929L26.5625 31.4467V17.2448C26.5625 15.5597 27.9641 14.1894 29.6875 14.1894C31.4109 14.1894 32.8125 15.5597 32.8125 17.2448V25.2945C33.5219 24.894 34.3637 24.7818 35.1568 24.9821C35.9499 25.1824 36.6309 25.6791 37.0531 26.3654C37.5969 25.9178 38.2984 25.6474 39.0625 25.6474C40.4234 25.6474 41.5844 26.5029 42.0125 27.6915C42.4832 27.3849 43.0301 27.2088 43.595 27.182C44.1599 27.1551 44.7216 27.2785 45.2205 27.539C45.7194 27.7995 46.1367 28.1874 46.428 28.6613C46.7194 29.1353 46.8738 29.6776 46.875 30.2306V42.4525C46.875 44.5578 45.1234 46.2719 42.9688 46.2719H35.1562C34.9491 46.2719 34.7503 46.1914 34.6038 46.0481C34.4573 45.9049 34.375 45.7106 34.375 45.508C34.375 45.3054 34.4573 45.1111 34.6038 44.9679C34.7503 44.8246 34.9491 44.7441 35.1562 44.7441H42.9688C44.2609 44.7441 45.3125 43.716 45.3125 42.4525V30.2306C45.2945 29.8372 45.122 29.4658 44.831 29.1937C44.5399 28.9216 44.1527 28.7697 43.75 28.7697C43.3473 28.7697 42.9601 28.9216 42.669 29.1937C42.378 29.4658 42.2055 29.8372 42.1875 30.2306C42.1875 30.4332 42.1052 30.6275 41.9587 30.7707C41.8122 30.914 41.6134 30.9945 41.4062 30.9945C41.1991 30.9945 41.0003 30.914 40.8538 30.7707C40.7073 30.6275 40.625 30.4332 40.625 30.2306V28.7029C40.607 28.3095 40.4345 27.9381 40.1435 27.666C39.8524 27.3938 39.4652 27.2419 39.0625 27.2419C38.6598 27.2419 38.2726 27.3938 37.9815 27.666C37.6905 27.9381 37.518 28.3095 37.5 28.7029C37.5 28.9055 37.4177 29.0998 37.2712 29.243C37.1247 29.3863 36.9259 29.4667 36.7188 29.4667C36.5116 29.4667 36.3128 29.3863 36.1663 29.243C36.0198 29.0998 35.9375 28.9055 35.9375 28.7029V27.939C35.9195 27.5456 35.747 27.1742 35.456 26.9021C35.1649 26.63 34.7777 26.4781 34.375 26.4781C33.9723 26.4781 33.5851 26.63 33.294 26.9021C33.003 27.1742 32.8305 27.5456 32.8125 27.939C32.8125 28.1416 32.7302 28.3359 32.5837 28.4791C32.4372 28.6224 32.2384 28.7029 32.0312 28.7029C31.824 28.7029 31.6253 28.6224 31.4788 28.4791C31.3323 28.3359 31.25 28.1416 31.25 27.939V17.2448C31.232 16.8515 31.0595 16.48 30.7685 16.2079C30.4774 15.9358 30.0902 15.7839 29.6875 15.7839C29.2848 15.7839 28.8976 15.9358 28.6065 16.2079C28.3155 16.48 28.143 16.8515 28.125 17.2448V34.8138C28.1242 34.9868 28.0636 35.1545 27.9529 35.2894C27.8421 35.4244 27.688 35.5187 27.5154 35.5569C27.3429 35.5952 27.1621 35.5752 27.0027 35.5002C26.8433 35.4252 26.7145 35.2996 26.6375 35.1438L23.9156 29.5783C23.6562 29.0298 23.1969 28.3377 22.4641 28.1147C21.9859 27.9696 21.4359 28.0276 20.8203 28.2919L23.0969 36.916C23.7969 38.4942 26.0641 43.0728 27.6656 43.9894C27.8937 44.1208 28.6484 44.599 28.8687 45.2804C28.9052 45.3946 28.9137 45.5155 28.8936 45.6336C28.8735 45.7516 28.8253 45.8633 28.753 45.9598C28.6806 46.0562 28.5861 46.1347 28.477 46.189C28.3679 46.2432 28.2474 46.2716 28.125 46.2719ZM28.9062 11.8977C28.699 11.8978 28.5001 11.8176 28.3531 11.6747L24.4469 7.85534C24.3046 7.71128 24.2258 7.51832 24.2276 7.31804C24.2294 7.11775 24.3115 6.92616 24.4564 6.78454C24.6012 6.64291 24.7972 6.56257 25.002 6.56083C25.2069 6.55909 25.4042 6.63609 25.5516 6.77523L28.9062 10.0538L37.7281 1.42814C37.8755 1.289 38.0728 1.21201 38.2777 1.21375C38.4825 1.21549 38.6784 1.29582 38.8233 1.43745C38.9681 1.57908 39.0503 1.77067 39.0521 1.97095C39.0539 2.17123 38.9751 2.36419 38.8328 2.50826L29.4578 11.6747C29.3854 11.7455 29.2994 11.8017 29.2048 11.84C29.1101 11.8783 29.0087 11.8979 28.9062 11.8977ZM14.8438 17.2448H2.34375C1.05156 17.2448 0 16.2167 0 14.9532V2.73131C0 1.46787 1.05156 0.439697 2.34375 0.439697H14.8438C16.1359 0.439697 17.1875 1.46787 17.1875 2.73131V14.9532C17.1875 16.2167 16.1359 17.2448 14.8438 17.2448ZM2.34375 1.96744C2.13655 1.96744 1.93784 2.04792 1.79132 2.19117C1.64481 2.33442 1.5625 2.52872 1.5625 2.73131V14.9532C1.5625 15.1558 1.64481 15.3501 1.79132 15.4934C1.93784 15.6366 2.13655 15.7171 2.34375 15.7171H14.8438C15.051 15.7171 15.2497 15.6366 15.3962 15.4934C15.5427 15.3501 15.625 15.1558 15.625 14.9532V2.73131C15.625 2.52872 15.5427 2.33442 15.3962 2.19117C15.2497 2.04792 15.051 1.96744 14.8438 1.96744H2.34375ZM14.8438 37.1054H2.34375C1.05156 37.1054 0 36.0773 0 34.8138V22.5919C0 21.3285 1.05156 20.3003 2.34375 20.3003H14.8438C16.1359 20.3003 17.1875 21.3285 17.1875 22.5919V34.8138C17.1875 36.0773 16.1359 37.1054 14.8438 37.1054ZM2.34375 21.828C2.13655 21.828 1.93784 21.9085 1.79132 22.0518C1.64481 22.195 1.5625 22.3893 1.5625 22.5919V34.8138C1.5625 35.0164 1.64481 35.2107 1.79132 35.354C1.93784 35.4972 2.13655 35.5777 2.34375 35.5777H14.8438C15.051 35.5777 15.2497 35.4972 15.3962 35.354C15.5427 35.2107 15.625 35.0164 15.625 34.8138V22.5919C15.625 22.3893 15.5427 22.195 15.3962 22.0518C15.2497 21.9085 15.051 21.828 14.8438 21.828H2.34375Z" fill="#0051BA"/>
</svg>
