<svg width="43" height="47" viewBox="0 0 43 47" fill="none" xmlns="http://www.w3.org/2000/svg">
<path fill-rule="evenodd" clip-rule="evenodd" d="M29.5476 11.1945C29.5476 13.9572 28.4502 16.6067 26.4967 18.5602C24.5431 20.5137 21.8936 21.6112 19.131 21.6112C16.3683 21.6112 13.7188 20.5137 11.7653 18.5602C9.81175 16.6067 8.71429 13.9572 8.71429 11.1945C8.71429 8.43183 9.81175 5.78231 11.7653 3.8288C13.7188 1.8753 16.3683 0.777832 19.131 0.777832C21.8936 0.777832 24.5431 1.8753 26.4967 3.8288C28.4502 5.78231 29.5476 8.43183 29.5476 11.1945ZM19.131 19.5278C21.3411 19.5278 23.4607 18.6499 25.0235 17.0871C26.5863 15.5243 27.4643 13.4046 27.4643 11.1945C27.4643 8.98436 26.5863 6.86475 25.0235 5.30194C23.4607 3.73914 21.3411 2.86117 19.131 2.86117C16.9208 2.86117 14.8012 3.73914 13.2384 5.30194C11.6756 6.86475 10.7976 8.98436 10.7976 11.1945C10.7976 13.4046 11.6756 15.5243 13.2384 17.0871C14.8012 18.6499 16.9208 19.5278 19.131 19.5278ZM14.9643 25.7778C11.0965 25.7778 7.38722 27.3143 4.65231 30.0492C1.91741 32.7841 0.380953 36.4934 0.380953 40.3612C0.380953 42.0188 1.03943 43.6085 2.21154 44.7806C3.38364 45.9527 4.97335 46.6112 6.63095 46.6112H20.1726C20.4489 46.6112 20.7138 46.5014 20.9092 46.3061C21.1045 46.1107 21.2143 45.8458 21.2143 45.5695C21.2143 45.2932 21.1045 45.0283 20.9092 44.8329C20.7138 44.6376 20.4489 44.5278 20.1726 44.5278H6.63095C5.52588 44.5278 4.46608 44.0888 3.68467 43.3074C2.90327 42.526 2.46429 41.4662 2.46429 40.3612C2.46429 37.046 3.78125 33.8665 6.12545 31.5223C8.46966 29.1781 11.6491 27.8612 14.9643 27.8612H24.3393C24.6156 27.8612 24.8805 27.7514 25.0759 27.5561C25.2712 27.3607 25.381 27.0958 25.381 26.8195C25.381 26.5432 25.2712 26.2783 25.0759 26.0829C24.8805 25.8876 24.6156 25.7778 24.3393 25.7778H14.9643ZM33.7143 29.9445C33.9906 29.9445 34.2555 30.0542 34.4509 30.2496C34.6462 30.4449 34.756 30.7099 34.756 30.9862V37.2362H41.006C41.2822 37.2362 41.5472 37.3459 41.7425 37.5413C41.9379 37.7366 42.0476 38.0016 42.0476 38.2778C42.0476 38.5541 41.9379 38.819 41.7425 39.0144C41.5472 39.2098 41.2822 39.3195 41.006 39.3195H34.756V45.5695C34.756 45.8458 34.6462 46.1107 34.4509 46.3061C34.2555 46.5014 33.9906 46.6112 33.7143 46.6112C33.438 46.6112 33.1731 46.5014 32.9777 46.3061C32.7824 46.1107 32.6726 45.8458 32.6726 45.5695V39.3195H26.4226C26.1464 39.3195 25.8814 39.2098 25.6861 39.0144C25.4907 38.819 25.381 38.5541 25.381 38.2778C25.381 38.0016 25.4907 37.7366 25.6861 37.5413C25.8814 37.3459 26.1464 37.2362 26.4226 37.2362H32.6726V30.9862C32.6726 30.7099 32.7824 30.4449 32.9777 30.2496C33.1731 30.0542 33.438 29.9445 33.7143 29.9445Z" fill="#0051BA"/>
</svg>
