<svg width="48" height="48" viewBox="0 0 48 48" fill="none" xmlns="http://www.w3.org/2000/svg">
<path d="M46.6 39.9L39.8 33.1C40.3 31.9 40.7 30.6 40.8 29.3C41.1 25.9 40.1 22.5 37.9 19.9C36.7 18.4 35.2 17.3 33.5 16.5V11.3C33.5 8.9 31.5 6.9 29 6.9H26.3V5.5C26.3 4 25.1 2.8 23.5 2.8H20.5C20 1.2 18.5 0 16.8 0C15 0 13.6 1.2 13.1 2.7H10.1C8.49999 2.8 7.29999 4 7.29999 5.5V6.9H4.59999C2.09999 6.9 0.0999881 8.9 0.0999881 11.3V43.6C-1.18539e-05 46 2.09999 48 4.59999 48H29C31.5 48 33.5 46 33.5 43.5V40.3L39.8 46.6C41.6 48.4 44.6 48.5 46.5 46.6C48.4 44.7 48.5 41.7 46.6 39.9ZM36.4 21.1C38.2 23.3 39.1 26.2 38.8 29C38.4 33.1 35.8 36.5 32.2 38H32.1C30.5 38.7 28.8 38.9 26.9 38.8C20.9 38.2 16.6 32.9 17.2 26.9C17.5 24.1 18.8 21.6 20.8 19.8L20.9 19.7C23.1 17.8 26.1 16.8 29.1 17.1C30.2 17.2 31.2 17.5 32.2 17.9C33.8 18.7 35.2 19.7 36.4 21.1ZM9.29999 5.5C9.29999 5.1 9.69999 4.8 10.1 4.8H14C14.6 4.8 15 4.4 15 3.8C15 2.8 15.8 2.1 16.8 2.1C17.8 2.1 18.7 2.9 18.7 3.8C18.7 4.4 19.1 4.8 19.7 4.8H23.6C24 4.8 24.4 5.1 24.4 5.5V10.3C24.4 10.7 24 11 23.6 11H10.1C9.69999 11 9.29999 10.7 9.29999 10.3V5.5ZM29 46H4.59999C3.19999 46 1.99999 44.9 1.99999 43.6V11.3C1.99999 10 3.09999 8.9 4.49999 8.9H7.19999V10.3C7.19999 11.8 8.39999 13 9.99999 13H23.5C25 13 26.3 11.8 26.3 10.3V8.9H29C30.4 8.9 31.5 10 31.5 11.3V15.7C30.8 15.5 30 15.3 29.2 15.3C25.6 14.9 22.3 16.1 19.7 18.2H7.69999C7.09999 18.2 6.69999 18.6 6.69999 19.2C6.69999 19.8 7.09999 20.2 7.69999 20.2H17.8C17.1 21.1 16.6 22 16.1 23.1H7.79999C7.19999 23.1 6.79999 23.5 6.79999 24.1C6.79999 24.7 7.19999 25.1 7.79999 25.1H15.6C15.5 25.7 15.3 26.3 15.3 26.9V28H7.79999C7.19999 28 6.79999 28.4 6.79999 29C6.79999 29.6 7.19999 30 7.79999 30H15.3C15.4 31 15.7 31.9 16 32.9H7.79999C7.19999 32.9 6.79999 33.3 6.79999 33.9C6.79999 34.5 7.19999 34.9 7.79999 34.9H17C17.6 36 18.4 36.9 19.3 37.7H7.79999C7.19999 37.7 6.79999 38.1 6.79999 38.7C6.79999 39.3 7.19999 39.7 7.79999 39.7H22.3C23.7 40.4 25.1 40.8 26.7 41C28.3 41.2 29.9 41 31.5 40.6V43.7C31.6 44.8 30.4 46 29 46ZM45.2 45.2C44.1 46.3 42.4 46.3 41.3 45.2L34.9 38.9C36.5 37.9 37.8 36.6 38.8 35L45.1 41.3C46.3 42.4 46.3 44.1 45.2 45.2Z" fill="#FFCC00"/>
</svg>
