<svg width="50" height="50" viewBox="0 0 50 50" fill="none" xmlns="http://www.w3.org/2000/svg">
<g clip-path="url(#clip0_425_1660)">
<path d="M47.5 31.6667H42.5C41.9848 31.6688 41.4828 31.8301 41.0628 32.1284C40.6427 32.4268 40.3251 32.8476 40.1533 33.3334H37.215C35.9532 33.3357 34.7258 33.7449 33.715 34.5001L33.0483 35.0001C32.3261 35.5393 31.4495 35.8315 30.5483 35.8334H28.0483C25.7483 35.8361 23.8844 37.7 23.8816 40.0001C23.8848 40.2576 23.9287 40.5129 24.0115 40.7567C23.7783 40.7132 23.5491 40.6499 23.3266 40.5676L11.9532 36.3009C11.4712 36.1227 10.9483 36.0862 10.4462 36.1958C9.9441 36.3054 9.48389 36.5564 9.11994 36.9192C8.8704 37.1665 8.67239 37.4607 8.53737 37.785C8.40234 38.1093 8.33299 38.4571 8.33331 38.8084C8.33276 39.2685 8.45031 39.7211 8.67471 40.1227C8.89911 40.5244 9.22286 40.8618 9.61496 41.1025L21.4116 48.3101C22.3281 48.8726 23.383 49.1692 24.4583 49.1667H40.65C40.8825 49.4278 41.1674 49.637 41.4862 49.7806C41.8049 49.9242 42.1504 49.9989 42.5 50H47.5C48.8807 50 50 48.8808 50 47.5V34.1667C50 32.7859 48.8808 31.6667 47.5 31.6667ZM24.4583 47.5C23.691 47.502 22.9382 47.2905 22.2842 46.8892L10.4908 39.6842C10.3409 39.5924 10.217 39.4637 10.1311 39.3103C10.0451 39.157 10 38.9841 10 38.8083C9.99971 38.6748 10.0263 38.5426 10.0783 38.4196C10.1303 38.2966 10.2066 38.1853 10.3026 38.0925C10.4406 37.9561 10.6148 37.8622 10.8046 37.8217C10.9943 37.7812 11.1917 37.796 11.3734 37.8642L22.7408 42.1283C23.396 42.3744 24.0901 42.5003 24.79 42.5H29.7166C30.7413 42.511 31.7408 42.8197 32.5933 43.3884C32.7779 43.5079 33.0023 43.5495 33.2176 43.5043C33.4328 43.459 33.6214 43.3306 33.7424 43.1469C33.8633 42.9632 33.9067 42.7391 33.8632 42.5235C33.8197 42.3079 33.6927 42.1183 33.51 41.9959C32.3857 41.2473 31.0673 40.8432 29.7166 40.8334H26.3833C26.2739 40.8334 26.1655 40.8118 26.0644 40.77C25.9633 40.7281 25.8715 40.6667 25.7941 40.5893C25.7167 40.512 25.6553 40.4201 25.6134 40.319C25.5716 40.2179 25.55 40.1095 25.55 40.0001C25.55 38.6194 26.6693 37.5001 28.05 37.5001H30.55C31.8118 37.4977 33.0392 37.0886 34.05 36.3334L34.7167 35.8334C35.4389 35.2943 36.3155 35.0021 37.2167 35.0001H40V47.5001L24.4583 47.5ZM48.3333 47.5C48.3333 47.721 48.2455 47.933 48.0892 48.0892C47.933 48.2455 47.721 48.3333 47.5 48.3333H42.5C42.279 48.3333 42.0671 48.2455 41.9108 48.0892C41.7545 47.933 41.6667 47.721 41.6667 47.5V34.1667C41.6667 33.9457 41.7545 33.7337 41.9108 33.5775C42.0671 33.4212 42.279 33.3334 42.5 33.3334H47.5C47.721 33.3334 47.933 33.4212 48.0892 33.5775C48.2455 33.7337 48.3333 33.9457 48.3333 34.1667V47.5ZM30 25.8333C30.1094 25.8333 30.2178 25.8117 30.3189 25.7699C30.42 25.728 30.5119 25.6666 30.5892 25.5892C30.6666 25.5119 30.728 25.42 30.7699 25.3189C30.8118 25.2178 30.8333 25.1094 30.8333 25V23.3333C30.8333 23.1123 30.7455 22.9003 30.5892 22.7441C30.433 22.5878 30.221 22.5 30 22.5C29.779 22.5 29.5671 22.5878 29.4108 22.7441C29.2545 22.9003 29.1667 23.1123 29.1667 23.3333V25C29.1667 25.1094 29.1883 25.2178 29.2301 25.3189C29.272 25.42 29.3334 25.5119 29.4108 25.5892C29.4882 25.6666 29.58 25.728 29.6811 25.7699C29.7822 25.8117 29.8906 25.8333 30 25.8333ZM33.3333 25.8333C33.4427 25.8333 33.5511 25.8117 33.6522 25.7699C33.7533 25.728 33.8452 25.6666 33.9225 25.5892C33.9999 25.5119 34.0613 25.42 34.1032 25.3189C34.1451 25.2178 34.1666 25.1094 34.1666 25V23.3333C34.1666 23.1123 34.0788 22.9003 33.9225 22.7441C33.7663 22.5878 33.5543 22.5 33.3333 22.5C33.1123 22.5 32.9004 22.5878 32.7441 22.7441C32.5878 22.9003 32.5 23.1123 32.5 23.3333V25C32.5 25.1094 32.5216 25.2178 32.5634 25.3189C32.6053 25.42 32.6667 25.5119 32.7441 25.5892C32.8215 25.6666 32.9133 25.728 33.0144 25.7699C33.1155 25.8117 33.2239 25.8333 33.3333 25.8333ZM36.6667 25.8333C36.7761 25.8333 36.8845 25.8117 36.9856 25.7699C37.0867 25.728 37.1786 25.6666 37.2559 25.5892C37.3333 25.5119 37.3947 25.42 37.4366 25.3189C37.4785 25.2178 37.5 25.1094 37.5 25V23.3333C37.5 23.1123 37.4122 22.9003 37.2559 22.7441C37.0997 22.5878 36.8877 22.5 36.6667 22.5C36.4457 22.5 36.2338 22.5878 36.0775 22.7441C35.9212 22.9003 35.8334 23.1123 35.8334 23.3333V25C35.8334 25.1094 35.8549 25.2178 35.8968 25.3189C35.9387 25.42 36.0001 25.5119 36.0775 25.5893C36.1548 25.6666 36.2467 25.728 36.3478 25.7699C36.4489 25.8118 36.5573 25.8333 36.6667 25.8333Z" fill="#E94E77"/>
<path d="M2.5 28.3333H4.32002C5.14266 28.3324 5.94699 28.5761 6.63086 29.0333L9.11172 30.6866C10.069 31.3269 11.195 31.668 12.3467 31.6666H19.4642C20.0295 31.6676 20.5842 31.5126 21.0671 31.2185C21.55 30.9244 21.9423 30.5027 22.2008 29.9999H37.5C39.3409 29.9999 40.8333 28.5075 40.8333 26.6666V3.3333C40.8333 1.49238 39.3409 0 37.5 0H15.8333C13.9924 0 12.5 1.49238 12.5 3.3333V9.1666H11.6667C10.3794 9.17023 9.14538 9.68136 8.23252 10.5891L6.42256 12.399C5.82294 12.9953 5.01232 13.331 4.1667 13.3332H2.5C1.11934 13.3332 0 14.4525 0 15.8332V25.8332C0 27.2141 1.11934 28.3333 2.5 28.3333ZM29.1667 1.6667V8.3334C29.1667 8.5544 29.0789 8.76636 28.9226 8.92263C28.7664 9.07891 28.5544 9.1667 28.3334 9.1667H23.3334C23.1124 9.1667 22.9004 9.07891 22.7442 8.92263C22.5879 8.76636 22.5001 8.5544 22.5001 8.3334V1.6667H29.1667ZM14.1667 3.3333C14.1667 2.41279 14.9129 1.6666 15.8334 1.6666H20.8334V8.3333C20.8334 9.71396 21.9527 10.8333 23.3334 10.8333H28.3334C29.7141 10.8333 30.8334 9.71396 30.8334 8.3333V1.6667H37.5C38.4205 1.6667 39.1667 2.41289 39.1667 3.3334V26.6667C39.1667 27.5872 38.4205 28.3334 37.5 28.3334H22.4642C22.4239 28.0413 22.3396 27.7569 22.2142 27.49C23.6425 27.3933 24.8034 26.3007 24.9866 24.8809C25.0451 24.2966 24.927 23.7081 24.6475 23.1917C25.9572 22.769 26.7934 21.4884 26.6533 20.1192C26.5853 19.5605 26.359 19.0328 26.0011 18.5983C25.6432 18.1638 25.1687 17.8406 24.6333 17.6667C24.88 17.2227 25.0065 16.7219 25.0002 16.214C24.9939 15.7061 24.8551 15.2086 24.5975 14.7708C24.3398 14.3331 23.9724 13.9701 23.5314 13.718C23.0904 13.4659 22.5913 13.3333 22.0833 13.3334H14.1666V3.3333H14.1667ZM1.6667 15.8333C1.6667 15.7239 1.68825 15.6155 1.73013 15.5144C1.77201 15.4133 1.83339 15.3214 1.91077 15.2441C1.98815 15.1667 2.08001 15.1053 2.18111 15.0634C2.28221 15.0216 2.39057 15 2.5 15H4.1667C5.45404 14.9964 6.68802 14.4852 7.60088 13.5775L9.41084 11.7676C10.0105 11.1713 10.8211 10.8356 11.6667 10.8334H12.5V13.3334H11.6667C11.4457 13.3334 11.2337 13.4212 11.0775 13.5775C10.9212 13.7337 10.8334 13.9457 10.8334 14.1667C10.8334 14.3877 10.9212 14.5997 11.0775 14.7559C11.2337 14.9122 11.4457 15 11.6667 15H22.0834C22.7737 15 23.3334 15.5597 23.3334 16.25C23.3334 16.9403 22.7737 17.5 22.0834 17.5H16.6667C16.4457 17.5 16.2337 17.5878 16.0775 17.7441C15.9212 17.9003 15.8334 18.1123 15.8334 18.3333C15.8334 18.5543 15.9212 18.7663 16.0775 18.9225C16.2337 19.0788 16.4457 19.1666 16.6667 19.1666H23.6309C23.9552 19.1553 24.2725 19.2626 24.5233 19.4685C24.7741 19.6744 24.9412 19.9647 24.9934 20.285C25.0118 20.4593 24.9934 20.6355 24.9393 20.8022C24.8853 20.969 24.7967 21.1225 24.6795 21.2528C24.5622 21.3831 24.4189 21.4872 24.2587 21.5585C24.0986 21.6298 23.9253 21.6666 23.75 21.6666H16.6667C16.4457 21.6666 16.2337 21.7544 16.0775 21.9107C15.9212 22.0669 15.8334 22.2789 15.8334 22.4999C15.8334 22.7209 15.9212 22.9329 16.0775 23.0891C16.2337 23.2454 16.4457 23.3332 16.6667 23.3332H22.0834C22.2587 23.3332 22.432 23.37 22.5921 23.4413C22.7523 23.5126 22.8956 23.6167 23.0129 23.747C23.1301 23.8773 23.2187 24.0308 23.2727 24.1976C23.3268 24.3643 23.3452 24.5405 23.3268 24.7148C23.2746 25.0351 23.1075 25.3254 22.8567 25.5313C22.6058 25.7372 22.2886 25.8445 21.9643 25.8332H16.6668C16.4458 25.8332 16.2338 25.921 16.0776 26.0773C15.9213 26.2335 15.8335 26.4455 15.8335 26.6665C15.8335 26.8875 15.9213 27.0995 16.0776 27.2557C16.2338 27.412 16.4458 27.4998 16.6668 27.4998H19.5835C19.7588 27.4998 19.9321 27.5366 20.0922 27.6079C20.2524 27.6792 20.3957 27.7833 20.513 27.9136C20.6302 28.0439 20.7188 28.1974 20.7728 28.3642C20.8269 28.5309 20.8453 28.7071 20.8269 28.8814C20.7747 29.2017 20.6076 29.492 20.3568 29.6979C20.1059 29.9038 19.7887 30.0111 19.4644 29.9998H12.3467C11.524 30.0007 10.7197 29.757 10.0358 29.2998L7.55498 27.6465C6.5977 27.0063 5.47166 26.6651 4.32002 26.6665H2.5C2.39057 26.6665 2.28221 26.645 2.18111 26.6031C2.08001 26.5612 1.98815 26.4998 1.91077 26.4224C1.83339 26.3451 1.77201 26.2532 1.73013 26.1521C1.68825 26.051 1.6667 25.9426 1.6667 25.8332V15.8333Z" fill="#E94E77"/>
</g>
<defs>
<clipPath id="clip0_425_1660">
<rect width="50" height="50" fill="white"/>
</clipPath>
</defs>
</svg>
