<svg width="37" height="40" viewBox="0 0 37 40" fill="none" xmlns="http://www.w3.org/2000/svg">
<path d="M35.7192 25.2617L33.1183 23.1892C32.9394 23.0477 32.733 22.9449 32.5122 22.8874C32.2914 22.8299 32.0611 22.8188 31.8358 22.855C31.3817 22.93 30.9775 23.1942 30.7283 23.5809L24.7325 32.8684L22.9233 30.6175C22.3 29.8417 21 29.84 20.3767 30.6175L18.3583 33.1284C18.2209 33.2986 18.1195 33.4949 18.0602 33.7055C18.0008 33.916 17.9849 34.1364 18.0133 34.3534C18.0692 34.7942 18.2975 35.185 18.655 35.4509L23.6017 39.1459C23.9192 39.3834 24.295 39.4992 24.6683 39.4992C25.1683 39.4992 25.6642 39.2925 26.0133 38.8942L35.9283 27.61C36.2217 27.2767 36.3658 26.8317 36.3275 26.3909C36.3073 26.1716 36.243 25.9587 36.1386 25.7648C36.0343 25.571 35.8919 25.4001 35.72 25.2625L35.7192 25.2617ZM24.7617 37.7925C24.7414 37.8148 24.7137 37.8288 24.6837 37.8321C24.6538 37.8353 24.6237 37.8274 24.5992 37.81L19.6842 34.1384L21.625 31.66L24.1575 34.8117C24.325 35.0209 24.5783 35.1259 24.85 35.1225C24.9818 35.1156 25.1101 35.0774 25.2242 35.0112C25.3384 34.945 25.4352 34.8526 25.5067 34.7417L32.0808 24.4925L34.6775 26.5084L24.7625 37.7925H24.7617ZM10.5 0.333353C10.279 0.333353 10.067 0.42115 9.91074 0.577431C9.75446 0.733711 9.66667 0.945672 9.66667 1.16669V1.19252C9.66667 1.65335 10.0392 2.01252 10.5 2.01252C10.9608 2.01252 11.3333 1.62669 11.3333 1.16585C11.3333 0.70502 10.9608 0.333353 10.5 0.333353ZM0.5 13.6667C0.5 13.8877 0.587798 14.0997 0.744078 14.2559C0.900358 14.4122 1.11232 14.5 1.33333 14.5H13C13.221 14.5 13.433 14.4122 13.5893 14.2559C13.7455 14.0997 13.8333 13.8877 13.8333 13.6667C13.8333 13.4457 13.7455 13.2337 13.5893 13.0774C13.433 12.9212 13.221 12.8334 13 12.8334H1.33333C1.11232 12.8334 0.900358 12.9212 0.744078 13.0774C0.587798 13.2337 0.5 13.4457 0.5 13.6667ZM17.4108 15.0892C17.5671 15.2455 17.779 15.3333 18 15.3334C18.0192 15.3334 18.0392 15.3334 18.0592 15.3309C18.1782 15.3224 18.2941 15.2885 18.3989 15.2314C18.5037 15.1744 18.595 15.0954 18.6667 15L21.1667 11.6667C21.2323 11.5792 21.28 11.4796 21.3071 11.3737C21.3343 11.2678 21.3403 11.1575 21.3248 11.0493C21.3093 10.941 21.2727 10.8368 21.2169 10.7428C21.1612 10.6487 21.0875 10.5665 21 10.5009C20.9125 10.4352 20.8129 10.3875 20.707 10.3604C20.6011 10.3333 20.4908 10.3273 20.3826 10.3427C20.2743 10.3582 20.1702 10.3949 20.0761 10.4506C19.982 10.5063 19.8998 10.58 19.8342 10.6675L17.91 13.2317L17.7558 13.0775C17.5996 12.9213 17.3876 12.8335 17.1667 12.8335C16.9457 12.8335 16.7338 12.9213 16.5775 13.0775C16.4212 13.2338 16.3335 13.4457 16.3335 13.6667C16.3335 13.8877 16.4212 14.0996 16.5775 14.2559L17.4108 15.0892ZM10.5 22H1.33333C1.11232 22 0.900358 22.0878 0.744078 22.2441C0.587798 22.4004 0.5 22.6123 0.5 22.8334C0.5 23.0544 0.587798 23.2663 0.744078 23.4226C0.900358 23.5789 1.11232 23.6667 1.33333 23.6667H10.5C10.721 23.6667 10.933 23.5789 11.0893 23.4226C11.2455 23.2663 11.3333 23.0544 11.3333 22.8334C11.3333 22.6123 11.2455 22.4004 11.0893 22.2441C10.933 22.0878 10.721 22 10.5 22ZM8 31.1667H1.33333C1.11232 31.1667 0.900358 31.2545 0.744078 31.4108C0.587798 31.567 0.5 31.779 0.5 32C0.5 32.221 0.587798 32.433 0.744078 32.5893C0.900358 32.7456 1.11232 32.8334 1.33333 32.8334H8C8.22101 32.8334 8.43298 32.7456 8.58926 32.5893C8.74554 32.433 8.83333 32.221 8.83333 32C8.83333 31.779 8.74554 31.567 8.58926 31.4108C8.43298 31.2545 8.22101 31.1667 8 31.1667Z" fill="#E94E77"/>
</svg>
