<svg width="50" height="50" viewBox="0 0 50 50" fill="none" xmlns="http://www.w3.org/2000/svg">
<path fill-rule="evenodd" clip-rule="evenodd" d="M23.8412 43.9234C21.8675 43.9234 20.262 42.4682 20.2619 40.6873C20.2619 38.9001 21.8672 37.4447 23.841 37.4447C25.8145 37.4447 27.4204 38.8999 27.4204 40.6872C27.4204 42.468 25.8147 43.9233 23.8412 43.9234ZM23.841 35.9319C20.9436 35.932 18.5864 38.0639 18.5864 40.6873C18.5865 43.3043 20.9438 45.4362 23.8412 45.4361C26.7387 45.436 29.0959 43.304 29.0959 40.687C29.0957 38.0636 26.7384 35.9318 23.841 35.9319ZM19.0668 3.81264C19.0668 3.60841 19.2603 3.42972 19.4895 3.42961L27.9782 3.42939L23.4338 8.15287L21.9996 6.57002C21.7064 6.25086 21.1788 6.1998 20.8206 6.4679C20.4627 6.7296 20.4106 7.20833 20.7036 7.5339L22.7663 9.80624C23.0947 10.1682 23.7007 10.1849 24.0461 9.82536L28.613 5.08264L28.6132 11.6826C28.6132 11.8933 28.4196 12.0657 28.1905 12.0657L19.4893 12.0659C19.2602 12.0659 19.0666 11.8936 19.0666 11.6829L19.0668 3.81264ZM19.4897 13.5787L28.1908 13.5784C29.3477 13.5784 30.2889 12.7295 30.2889 11.6826L30.2887 3.81231C30.2887 3.67185 30.2691 3.5315 30.2351 3.39745L32.2971 1.25275C32.6007 0.94 32.5643 0.461263 32.2153 0.186752C31.8663 -0.087648 31.3371 -0.0558207 31.0333 0.256927L29.2071 2.15916C28.897 2.00051 28.5469 1.91696 28.1906 1.91659L19.4895 1.91681C18.3326 1.91681 17.3914 2.77217 17.3914 3.81264L17.3916 11.6829C17.3915 12.7297 18.3328 13.5787 19.4897 13.5787ZM46.1105 18.2824C46.1105 18.4866 45.917 18.6654 45.6879 18.6654L36.9869 18.6656C36.7578 18.6656 36.5645 18.4869 36.5645 18.2827L36.5642 10.4125C36.5642 10.2083 36.7576 10.0295 36.9867 10.0295L45.4757 10.0293L40.9311 14.7527L39.4972 13.1698C39.2038 12.8442 38.6761 12.7996 38.3179 13.0613C37.9601 13.3294 37.9077 13.8081 38.2011 14.1272L40.2637 16.4059C40.3406 16.4913 40.4375 16.5602 40.5474 16.6077C40.6572 16.6551 40.7774 16.68 40.8992 16.6804C40.9237 16.7154 41.3116 16.6665 41.5435 16.4251L46.1105 11.6824V18.2824ZM49.7122 6.78651C49.3632 6.512 48.8341 6.54394 48.5303 6.85668L46.704 8.75251C46.4027 8.60575 46.0565 8.51635 45.6876 8.51635L36.9866 8.51657C35.8297 8.51657 34.8888 9.36563 34.8888 10.4124L34.889 18.2826C34.889 19.3294 35.8301 20.1783 36.9869 20.1783L45.6879 20.1781C46.8448 20.1781 47.7861 19.3291 47.7861 18.2823L47.7859 10.4121C47.7859 10.2716 47.7662 10.1313 47.7326 9.9972L49.7942 7.85239C50.0978 7.53965 50.0614 7.06091 49.7122 6.78651ZM1.75748 10.4131C1.75748 10.2088 1.95105 10.03 2.18017 10.03L10.6689 10.0298L6.1243 14.7533L4.69029 13.1703C4.39713 12.8448 3.86922 12.8001 3.5113 13.0618C3.1535 13.3299 3.10107 13.8086 3.39448 14.1278L5.45709 16.4064C5.53399 16.4919 5.63088 16.5608 5.74078 16.6082C5.85069 16.6557 5.97086 16.6805 6.09265 16.6809C6.11416 16.7145 6.50215 16.67 6.73702 16.4257L11.3038 11.6829L11.3039 18.2829C11.3039 18.4872 11.1106 18.666 10.8814 18.666L2.18042 18.6662C1.95129 18.6662 1.75773 18.4875 1.75773 18.2833L1.75748 10.4131ZM2.18042 20.1791L10.8814 20.1789C12.0383 20.1789 12.9792 19.3299 12.9792 18.283L12.979 10.4128C12.979 10.2724 12.9597 10.132 12.9257 9.99798L14.9874 7.85317C15.2911 7.54042 15.2545 7.06168 14.9057 6.78728C14.5566 6.51277 14.0276 6.54471 13.7238 6.85746L11.8973 8.75328C11.5959 8.60653 11.2496 8.51712 10.8809 8.51712L2.17993 8.51734C1.02306 8.51734 0.0817521 9.3664 0.0818743 10.4132L0.0821186 18.2834C0.0822408 19.3301 1.02355 20.1791 2.18042 20.1791ZM45.8675 32.5739L37.8761 32.5741L39.2237 30.8634L45.8209 31.1951C46.2813 31.2142 46.6284 31.5143 46.6284 31.8845C46.6284 32.2611 46.2871 32.5739 45.8675 32.5739ZM31.2764 31.1317L34.9445 32.5103C35.3768 32.6699 35.8468 32.5485 36.1138 32.1976L42.1599 24.5251C42.3096 24.3271 42.368 24.0783 42.3186 23.8357C42.1636 23.0622 41.0452 22.7543 40.459 23.4719C40.4359 23.4983 40.4116 23.5238 40.3862 23.5485L34.7197 29.1018C34.4281 29.389 33.9448 29.4274 33.6012 29.1976L28.2814 25.585C27.2966 25.0488 25.7478 24.7553 24.1741 24.7872H23.5058C21.9324 24.7553 20.3846 25.049 19.4 25.5852L14.0803 29.1981C13.7365 29.4278 13.2535 29.3896 12.9616 29.1024L7.2951 23.5492C7.26956 23.5247 7.24518 23.4991 7.22203 23.4727C7.14539 23.3712 7.04723 23.2846 6.93326 23.2178C6.81929 23.1509 6.69177 23.1052 6.55812 23.0833C5.66251 22.9366 5.00251 23.8581 5.52736 24.5322L11.5617 32.1917C11.8389 32.5451 12.3101 32.668 12.7373 32.5109L16.405 31.132C16.9509 30.9283 17.5632 31.3015 17.5632 31.8341L17.5633 34.4129L18.9058 34.6746C19.4161 34.3313 19.9683 34.0422 20.5515 33.8128L21.1941 32.0255C21.2612 31.8343 21.3939 31.6674 21.5731 31.5492C21.7522 31.4309 21.9684 31.3675 22.1902 31.3681L25.4913 31.368C25.7132 31.3672 25.9295 31.4306 26.1087 31.5489C26.288 31.6671 26.4208 31.8341 26.4877 32.0254L27.1301 33.8126C27.7134 34.0419 28.2656 34.331 28.7759 34.6742L30.1183 34.4125L30.1182 31.8338C30.1182 31.3008 30.7282 30.9284 31.2764 31.1317ZM30.3563 39.7041C30.3358 39.5916 30.3435 39.4765 30.3788 39.3671C30.4141 39.2577 30.4762 39.1569 30.5604 39.0722L31.908 37.7189L30.7139 35.8488L28.742 36.2318C28.6185 36.2541 28.491 36.2514 28.3689 36.2238C28.2467 36.1962 28.1328 36.1444 28.0354 36.0722C27.4711 35.6509 26.8399 35.3191 26.1597 35.0892C25.9211 35.0126 25.736 34.8339 25.6574 34.6169L25.0351 32.887H22.6467L22.0245 34.6169C21.9456 34.8339 21.7607 35.0126 21.5221 35.0892C20.8421 35.319 20.2109 35.6509 19.6465 36.0722C19.5491 36.1444 19.4352 36.1962 19.313 36.2238C19.1908 36.2514 19.0633 36.2541 18.9398 36.2318L16.968 35.8489L15.774 37.7191L17.1217 39.0723C17.2059 39.157 17.268 39.2578 17.3033 39.3672C17.3386 39.4766 17.3462 39.5918 17.3257 39.7042C17.2073 40.353 17.2073 41.015 17.3257 41.6638C17.3462 41.7762 17.3386 41.8913 17.3033 42.0007C17.268 42.1101 17.2059 42.2109 17.1217 42.2957L15.774 43.6491L16.9681 45.5193L18.9399 45.1427C19.0628 45.1177 19.1904 45.1185 19.3129 45.1451C19.4354 45.1716 19.5496 45.2232 19.6466 45.2958C20.2109 45.7171 20.8421 46.049 21.5223 46.2787C21.7608 46.3617 21.9458 46.534 22.0246 46.7511L22.647 48.4872H25.0354L25.6573 46.7511C25.7361 46.534 25.9212 46.3617 26.1599 46.2787C26.8409 46.0489 27.4719 45.717 28.036 45.2957C28.133 45.223 28.2472 45.1714 28.3697 45.1449C28.4922 45.1183 28.6198 45.1175 28.7427 45.1426L30.714 45.5191L31.908 43.6488L30.5602 42.2956C30.4759 42.2108 30.4138 42.11 30.3785 42.0006C30.3432 41.8913 30.3356 41.7761 30.3562 41.6637C30.4748 41.0149 30.4748 40.3529 30.3563 39.7041ZM1.67561 31.8855C1.67561 31.5153 2.02266 31.2152 2.48311 31.1961L8.48167 30.8897L9.80546 32.5747L2.43667 32.5748C2.01691 32.5748 1.67561 32.2621 1.67561 31.8855ZM23.8401 17.1531C25.7101 17.1531 27.2311 18.5253 27.2312 20.2168C27.2312 22.0232 25.5096 23.4101 23.6041 23.2743C21.8445 23.1659 20.4493 21.8382 20.4493 20.2169C20.4493 18.5254 21.9706 17.1531 23.8401 17.1531ZM45.9139 29.6824L40.3736 29.4017L43.5306 25.3931C44.3859 24.2986 44.064 22.7506 42.8486 21.991C42.2562 21.6208 41.5377 21.4805 40.8244 21.5953C40.1326 21.7102 39.5293 22.0485 39.1188 22.5592L34.0016 27.57L29.2535 24.3467C28.7988 24.0561 27.9164 23.7489 27.2635 23.5936C28.2728 22.7574 28.9066 21.551 28.9066 20.2169C28.9064 17.6893 26.6338 15.6404 23.84 15.6404C21.0465 15.6405 18.7737 17.6895 18.7737 20.2171C18.7737 21.5512 19.4079 22.7575 20.4173 23.5937C19.7653 23.7488 18.8808 24.0566 18.4273 24.3469L13.6793 27.5704L8.56183 22.5598C8.15124 22.0493 7.54806 21.7109 6.85628 21.5961C6.14325 21.4812 5.42459 21.6216 4.83228 21.9918C3.60564 22.7578 3.30001 24.2898 4.15664 25.4067L7.33128 29.4343L2.38975 29.6834C1.04982 29.7473 -0.000122189 30.7175 1.06658e-08 31.8856C1.06658e-08 33.0983 1.0932 34.0877 2.43655 34.0876L12.1878 34.0874C12.5828 34.1129 12.989 34.0555 13.3782 33.9086L15.888 32.9703V34.5596C15.8328 34.6117 15.7848 34.6695 15.7449 34.7319L14.0943 37.3171C13.9835 37.4909 13.9362 37.6919 13.9593 37.8914C13.9825 38.0909 14.0748 38.2786 14.2231 38.4278L15.6155 39.8256C15.5431 40.3961 15.5431 40.9722 15.6155 41.5426L14.2229 42.9405C14.0747 43.0897 13.9825 43.2775 13.9594 43.477C13.9364 43.6765 13.9836 43.8774 14.0944 44.0512L15.7455 46.6362C15.9733 46.9937 16.4254 47.1724 16.8701 47.0894L18.906 46.6937C19.4176 47.0384 19.9688 47.332 20.5516 47.5554L21.1944 49.349C21.263 49.5388 21.3964 49.7041 21.5754 49.821C21.7544 49.938 21.9697 50.0007 22.1906 50L25.4917 49.9999C25.9474 49.9999 26.3477 49.7382 26.4877 49.3487L27.13 47.5551C27.7136 47.3317 28.2651 47.0381 28.7769 46.6998L30.8113 47.0891C31.2562 47.1721 31.7087 46.9933 31.9366 46.6359L33.5878 44.0507C33.6984 43.8769 33.7455 43.6759 33.7223 43.4764C33.6991 43.277 33.6068 43.0892 33.4585 42.9401L32.0658 41.5422C32.1395 40.9741 32.1375 40.393 32.0661 39.8252L33.4586 38.4273C33.6069 38.2781 33.6991 38.0903 33.7222 37.8909C33.7453 37.6914 33.698 37.4904 33.5871 37.3167L31.9363 34.7316C31.8964 34.6693 31.8485 34.6114 31.7935 34.5593V32.9699L34.303 33.9082C34.7287 34.0693 35.1937 34.1265 35.6515 34.074C35.697 34.0805 35.7434 34.0869 35.7905 34.0869L45.8672 34.0866C47.2107 34.0866 48.3036 33.0972 48.3036 31.8845C48.3039 30.7164 47.2542 29.7462 45.9139 29.6824Z" fill="#FFCC00"/>
</svg>
