<svg width="50" height="50" viewBox="0 0 50 50" fill="none" xmlns="http://www.w3.org/2000/svg">
<path d="M9.69578 25.1053L0.740977 20.3463L0.126158 22.2253L6.02284 25.3589V34.5246C6.02284 34.7947 6.10696 35.0537 6.2567 35.2447C6.40644 35.4357 6.60954 35.543 6.8213 35.543H10.8576C11.2737 36.3875 11.7619 37.1706 12.3132 37.8782C12.5172 38.1389 12.7647 38.3377 13.0372 38.4597C13.3098 38.5817 13.6004 38.6238 13.8875 38.5829C14.1745 38.542 14.4507 38.4192 14.6954 38.2235C14.9401 38.0278 15.1471 37.7642 15.301 37.4525L15.4551 37.7C15.669 38.0422 15.9525 38.3029 16.2747 38.4533C16.597 38.6038 16.9454 38.6382 17.282 38.5529C17.6185 38.4677 17.9302 38.2659 18.1829 37.9698C18.4355 37.6737 18.6194 37.2946 18.7145 36.874C18.9235 37.1375 19.1772 37.3362 19.456 37.4546C19.7348 37.5731 20.0312 37.6082 20.3223 37.5572C20.6135 37.5062 20.8915 37.3705 21.1349 37.1605C21.3784 36.9506 21.5807 36.6721 21.7263 36.3465C22.1244 36.5778 22.5734 36.6241 22.9955 36.4773C23.4176 36.3305 23.7861 36 24.0371 35.543H35.5661C35.7779 35.543 35.981 35.4357 36.1307 35.2447C36.2805 35.0537 36.3646 34.7947 36.3646 34.5246V1.93552C36.3646 1.66542 36.2805 1.40639 36.1307 1.2154C35.981 1.02441 35.7779 0.917114 35.5661 0.917114H6.8213C6.60954 0.917114 6.40644 1.02441 6.2567 1.2154C6.10696 1.40639 6.02284 1.66542 6.02284 1.93552V10.428L0.867135 6.17312L0 7.88302L12.9136 18.5407L9.69578 25.1053ZM7.61977 33.5062V26.2082L9.2167 27.0566V28.3418C9.21394 30.1135 9.48528 31.8685 10.0152 33.5062H7.61977ZM22.2796 34.3922L18.6139 28.7807L17.3858 30.0853L19.3716 33.1232L20.2747 34.659C20.3526 34.7927 20.3949 34.9547 20.3952 35.1213C20.3901 35.2017 20.3678 35.2786 20.3306 35.3438C20.2934 35.4089 20.2428 35.4597 20.1845 35.4906C20.1261 35.5214 20.0622 35.5311 19.9998 35.5186C19.9374 35.5061 19.8789 35.4719 19.8307 35.4197L16.169 30.7493L15.0399 32.1904L16.545 34.1101L17.0537 35.4065C17.1508 35.6541 17.2014 35.9271 17.2014 36.2039C17.196 36.2743 17.1749 36.3414 17.1407 36.3971C17.1065 36.4528 17.0605 36.4949 17.0082 36.5184C16.9559 36.5419 16.8994 36.5459 16.8453 36.5299C16.7913 36.5139 16.742 36.4785 16.7031 36.428L13.8286 31.8523L12.5814 33.1243L13.9213 35.2629C13.9741 35.5514 14.0008 35.8466 14.0011 36.1428C13.996 36.2231 13.9736 36.3001 13.9365 36.3652C13.8993 36.4304 13.8487 36.4812 13.7903 36.512C13.732 36.5429 13.6681 36.5526 13.6057 36.5401C13.5433 36.5276 13.4847 36.4934 13.4366 36.4412C12.6014 35.3793 11.9395 34.1167 11.4893 32.7265C11.0391 31.3363 10.8094 29.846 10.8136 28.3418V26.6686L14.366 19.4185L16.9291 19.7821C19.2093 20.1044 21.5017 20.2663 23.7959 20.2669C23.9372 20.2663 24.074 20.33 24.1817 20.4466C24.2895 20.5632 24.361 20.725 24.3836 20.9029C24.4061 21.0808 24.3781 21.2631 24.3046 21.417C24.2311 21.571 24.117 21.6864 23.9828 21.7425C23.1093 22.1144 22.1944 22.3039 21.2736 22.3037H19.5968C19.4605 22.3035 19.3265 22.3478 19.2075 22.4323C19.0885 22.5169 18.9884 22.6388 18.9168 22.7866C18.8452 22.9344 18.8044 23.1031 18.7983 23.2767C18.7923 23.4503 18.8211 23.623 18.8821 23.7783L22.6469 33.3799C22.7412 33.6209 22.7904 33.8865 22.7906 34.1559C22.7855 34.2283 22.7642 34.2974 22.7294 34.355C22.6946 34.4126 22.6476 34.4563 22.594 34.4811C22.5404 34.5059 22.4823 34.5107 22.4267 34.4949C22.371 34.4792 22.32 34.4435 22.2796 34.3922ZM18.7983 2.95393H23.5891V11.1012H18.7983V2.95393ZM7.61977 11.7458V2.95393H17.2014V12.1196C17.2014 12.3897 17.2855 12.6487 17.4352 12.8397C17.585 13.0307 17.7881 13.138 17.9998 13.138H24.3876C24.5993 13.138 24.8024 13.0307 24.9522 12.8397C25.1019 12.6487 25.186 12.3897 25.186 12.1196V2.95393H34.7676V33.5062H24.3277C24.2837 33.1467 24.1987 32.7974 24.0754 32.4694L23.6833 31.4693H33.1707V29.4325H22.8849L20.8887 24.3405H21.2736C22.3669 24.3406 23.4532 24.116 24.4906 23.6755C24.9843 23.4654 25.4033 23.038 25.6725 22.4699C25.9417 21.9018 26.0435 21.2299 25.9597 20.5748C25.8759 19.9196 25.612 19.3238 25.2153 18.8942C24.8185 18.4646 24.3148 18.2291 23.7943 18.23C21.5596 18.2292 19.3267 18.0718 17.1056 17.7585L14.4459 17.3817L14.4411 17.3756L7.61977 11.7458ZM34.2039 37.6725L30.1661 38.4078C29.6729 38.5007 29.2219 38.8152 28.8944 39.2947C28.5669 39.7742 28.3845 40.3871 28.3799 41.023L23.4853 39.7745C22.2753 39.4486 21.0148 39.6412 19.8994 40.3224C19.5463 40.5465 19.2533 40.8993 19.0576 41.3361C18.8619 41.7729 18.7723 42.274 18.8002 42.7758C18.8281 43.2776 18.9722 43.7576 19.2142 44.1548C19.4562 44.5521 19.7853 44.8487 20.1597 45.007L30.4599 49.3862C31.6137 49.8767 32.8532 49.9375 34.0331 49.5614L38.8015 48.0409C38.8436 48.241 38.933 48.4198 39.0576 48.5528C39.1822 48.6859 39.3359 48.7667 39.4978 48.7843L49.8778 49.8027L50 47.7639L40.3569 46.8208V40.635H49.9385V38.5982H39.5584C39.448 38.5991 39.3388 38.6296 39.2382 38.6876C39.1375 38.7457 39.0475 38.8301 38.974 38.9353C37.5469 37.8216 35.8606 37.3752 34.2039 37.6725ZM33.645 47.5816C32.7598 47.863 31.8302 47.8174 30.9645 47.4502L20.6643 43.071C20.5905 43.0394 20.5256 42.9806 20.4779 42.902C20.4302 42.8234 20.4019 42.7285 20.3964 42.6294C20.3909 42.5303 20.4086 42.4313 20.4472 42.345C20.4858 42.2586 20.5436 42.1888 20.6132 42.1443C21.4109 41.6646 22.3104 41.5336 23.1723 41.7716L29.5201 43.3908C29.8105 43.5848 30.133 43.6875 30.4607 43.6902H33.1707V41.6534H30.4607C30.339 41.6517 30.2222 41.5916 30.1336 41.4852C30.0451 41.3787 29.9911 41.2336 29.9826 41.0787C29.974 40.9238 30.0115 40.7705 30.0875 40.6493C30.1635 40.528 30.2725 40.4476 30.3928 40.4242L34.4299 39.6889C35.7959 39.4449 37.1846 39.8466 38.3344 40.8183L38.76 41.1809V45.9511L33.645 47.5816Z" fill="#E94E77"/>
</svg>
