<svg width="73" height="72" viewBox="0 0 73 72" fill="none" xmlns="http://www.w3.org/2000/svg">
<path d="M59.7141 9.12375C59.4324 8.83618 59.0504 8.67462 58.6521 8.67462C58.2538 8.67462 57.8718 8.83618 57.5901 9.12375L50.4799 16.3836C50.1983 16.6712 49.8163 16.8327 49.418 16.8327C49.0196 16.8327 48.6376 16.6712 48.356 16.3836C48.0743 16.096 47.9161 15.706 47.9161 15.2993C47.9161 14.8926 48.0743 14.5025 48.356 14.2149L55.4662 6.9551C55.7478 6.66752 55.906 6.27747 55.906 5.87077C55.906 5.46407 55.7478 5.07403 55.4662 4.78644C55.1845 4.49887 54.8025 4.33731 54.4042 4.33731C54.0059 4.33731 53.6239 4.49887 53.3422 4.78644L46.232 12.0463C45.9504 12.3338 45.5684 12.4954 45.17 12.4954C44.7717 12.4954 44.3897 12.3338 44.1081 12.0463C43.8264 11.7587 43.6682 11.3686 43.6682 10.9619C43.6682 10.5552 43.8264 10.1652 44.1081 9.87761L51.2183 2.61779C51.4999 2.33021 51.6581 1.94016 51.6581 1.53346C51.6581 1.12676 51.4999 0.73672 51.2183 0.449137C50.9366 0.161559 50.5546 0 50.1563 0C49.758 0 49.376 0.161559 49.0943 0.449137L39.2633 10.487C38.0903 11.6847 38.0903 13.6267 39.2633 14.8243L40.9779 16.575L20.7298 36.1416C19.5647 37.2675 19.5392 39.1534 20.6737 40.3115C21.8079 41.4699 23.6549 41.4438 24.7576 40.2541L43.9209 19.58L45.6355 21.3306C46.8084 22.5282 48.7104 22.5282 49.8834 21.3306L59.7144 11.2927C59.996 11.005 60.1542 10.6149 60.1541 10.2082C60.1541 9.80142 59.9958 9.41135 59.7141 9.12375Z" fill="#FFCC00"/>
<path d="M59.7137 9.12403C59.2217 8.62166 58.4755 8.54652 57.9006 8.88695C58.0108 8.95228 58.1172 9.02742 58.2115 9.12403C58.4931 9.41161 58.6514 9.80166 58.6514 10.2084C58.6514 10.6151 58.4931 11.0051 58.2115 11.2927L48.3805 21.3306C48.0013 21.7176 47.527 21.9933 47.0075 22.1286C48.0026 22.3902 49.1032 22.1264 49.8824 21.3306L59.7134 11.2927C59.8529 11.1503 59.9636 10.9813 60.0392 10.7953C60.1147 10.6092 60.1536 10.4098 60.1536 10.2084C60.1537 10.007 60.1148 9.80759 60.0393 9.62152C59.9638 9.43546 59.8532 9.26641 59.7137 9.12403ZM43.1486 18.7927L23.255 40.2541C22.8955 40.6418 22.4378 40.9202 21.9327 41.0585C22.4307 41.1986 22.9565 41.1977 23.454 41.056C23.9515 40.9142 24.4018 40.6371 24.7569 40.2541L43.9199 19.5806L43.1486 18.7927Z" fill="#FFCC00"/>
<path d="M51.8771 36.1416L31.3696 16.324C32.8102 13.2614 31.9307 9.04459 28.9594 6.01043C25.3645 2.34019 20.0734 1.79212 17.1408 4.78671C14.2083 7.78099 14.7447 13.1838 18.3393 16.8537C21.3109 19.8879 25.4408 20.7856 28.4403 19.3146L47.8494 40.2541C48.9521 41.4437 50.7991 41.4698 51.9333 40.3114C53.0675 39.153 53.0423 37.2675 51.8771 36.1416Z" fill="#939598"/>
<path d="M51.8771 36.1416L31.3696 16.324C32.8102 13.2614 31.9307 9.04459 28.9594 6.01043C25.3645 2.34019 20.0734 1.79212 17.1408 4.78671C14.2083 7.78099 14.7447 13.1838 18.3393 16.8537C21.3109 19.8879 25.4408 20.7856 28.4403 19.3146L47.8494 40.2541C48.9521 41.4437 50.7991 41.4698 51.9333 40.3114C53.0675 39.153 53.0423 37.2675 51.8771 36.1416Z" fill="#FFCC00"/>
<path d="M51.8769 36.1411L31.3693 16.3236C32.8099 13.2609 31.9304 9.04416 28.9591 6.01001C26.7084 3.71193 23.7927 2.63849 21.207 2.89151C23.3742 3.09179 25.634 4.14836 27.4572 6.01001C30.4289 9.04416 31.3081 13.2609 29.8675 16.3236L50.3753 36.1411C51.5404 37.267 51.566 39.1529 50.4315 40.311C50.0825 40.6679 49.6482 40.9254 49.1717 41.0581C50.1233 41.3213 51.1836 41.0765 51.9333 40.311C53.0676 39.1529 53.042 37.267 51.8769 36.1411Z" fill="#FFCC00"/>
<path d="M69.0323 8.41235C67.1583 8.44731 65.6919 10.0891 65.6919 12.0028V27.3573C65.6919 28.1707 65.3753 28.9509 64.8121 29.526L50.0871 44.5609C47.8339 46.8615 46.568 49.9819 46.5679 53.2355V59.5228H62.0874V55.4465C62.0874 53.9596 62.6163 52.5233 63.5757 51.4048L71.0118 42.7369C71.9713 41.6184 72.5002 40.1822 72.5002 38.6953V11.8875C72.5002 9.94614 70.9415 8.37646 69.0323 8.41235Z" fill="#FCC4AE"/>
<path d="M70.7974 8.88074C70.925 9.24571 70.998 9.63736 70.998 10.0471V36.8546C70.998 38.3414 70.4691 39.7777 69.5097 40.8962L62.0736 49.5641C61.1141 50.6826 60.5852 52.1189 60.5852 53.6057V59.5222H62.0871V55.4459C62.0871 53.9591 62.616 52.5228 63.5754 51.4043L71.0115 42.7364C71.971 41.6179 72.4999 40.1816 72.4999 38.6948V11.8873C72.4999 10.6016 71.8138 9.48217 70.7974 8.88074Z" fill="#F2AD97"/>
<path d="M66.3884 32.7398C65.3449 31.7127 63.8099 31.5443 62.5541 32.1448C62.8596 32.2977 63.1398 32.4985 63.3846 32.7398C64.7594 34.0929 64.7745 36.3285 63.43 37.7012L55.7854 45.507C55.5862 45.7103 55.4744 45.9861 55.4744 46.2737C55.4744 46.5613 55.5862 46.8371 55.7854 47.0405C55.9846 47.2438 56.2547 47.3581 56.5363 47.3581C56.818 47.3581 57.0881 47.2438 57.2873 47.0405L66.4337 37.7012C67.7785 36.3281 67.7632 34.0929 66.3884 32.7398Z" fill="#F2AD97"/>
<path d="M65.7935 70.4666V61.0562C65.7935 60.6495 65.6353 60.2594 65.3537 59.9719C65.072 59.6843 64.69 59.5227 64.2917 59.5227H44.3551C43.9568 59.5227 43.5748 59.6843 43.2932 59.9719C43.0115 60.2594 42.8533 60.6495 42.8533 61.0562V70.4666C42.8533 70.8733 43.0115 71.2633 43.2932 71.5509C43.5748 71.8385 43.9568 72.0001 44.3551 72.0001H64.2917C64.69 72.0001 65.072 71.8385 65.3537 71.5509C65.6353 71.2633 65.7935 70.8733 65.7935 70.4666Z" fill="#0051BA"/>
<path d="M56.7817 61.9762H56.67C56.5106 61.9762 56.3578 61.9115 56.2452 61.7965C56.1325 61.6815 56.0692 61.5255 56.0692 61.3628C56.0692 61.2001 56.1325 61.0441 56.2452 60.929C56.3578 60.814 56.5106 60.7494 56.67 60.7494H56.7817C56.941 60.7494 57.0938 60.814 57.2065 60.929C57.3192 61.0441 57.3825 61.2001 57.3825 61.3628C57.3825 61.5255 57.3192 61.6815 57.2065 61.7965C57.0938 61.9115 56.941 61.9762 56.7817 61.9762ZM54.267 61.9762H44.655C44.4956 61.9762 44.3428 61.9115 44.2302 61.7965C44.1175 61.6815 44.0542 61.5255 44.0542 61.3628C44.0542 61.2001 44.1175 61.0441 44.2302 60.929C44.3428 60.814 44.4956 60.7494 44.655 60.7494H54.267C54.4263 60.7494 54.5791 60.814 54.6918 60.929C54.8044 61.0441 54.8677 61.2001 54.8677 61.3628C54.8677 61.5255 54.8044 61.6815 54.6918 61.7965C54.5791 61.9115 54.4263 61.9762 54.267 61.9762Z" fill="#5E9CF7"/>
<path d="M44.3551 72.0001C43.9568 72.0001 43.5748 71.8385 43.2932 71.5509C43.0115 71.2633 42.8533 70.8733 42.8533 70.4666V65.8661H58.2842C58.6825 65.8661 59.0645 65.7046 59.3462 65.417C59.6278 65.1294 59.786 64.7393 59.786 64.3326V59.5227H64.2917C64.69 59.5227 65.072 59.6843 65.3537 59.9719C65.6353 60.2594 65.7935 60.6495 65.7935 61.0562V70.4666C65.7935 70.8733 65.6353 71.2633 65.3537 71.5509C65.072 71.8385 64.69 72.0001 64.2917 72.0001H44.3551Z" fill="#377DE2"/>
<path d="M44.3551 72.0001C43.9568 72.0001 43.5748 71.8385 43.2932 71.5509C43.0115 71.2633 42.8533 70.8733 42.8533 70.4666V68.9331H61.2879C61.6862 68.9331 62.0682 68.7715 62.3499 68.4839C62.6316 68.1964 62.7898 67.8063 62.7898 67.3996V59.5227H64.2917C64.69 59.5227 65.072 59.6843 65.3537 59.9719C65.6353 60.2594 65.7935 60.6495 65.7935 61.0562V70.4666C65.7935 70.8733 65.6353 71.2633 65.3537 71.5509C65.072 71.8385 64.69 72.0001 64.2917 72.0001H44.3551Z" fill="#0051BA"/>
<path d="M10.9131 55.4465V59.5228H26.4326V53.2355C26.4327 51.6245 26.1219 50.0292 25.5181 48.5408C24.9142 47.0524 24.0292 45.7 22.9134 44.5609L8.18841 29.526C7.62512 28.9508 7.30865 28.1707 7.30861 27.3573V12.0028C7.30861 10.0891 5.84218 8.44731 3.96813 8.41235C2.05865 8.37646 0.5 9.94614 0.5 11.8875V38.695C0.5 40.1819 1.02896 41.6181 1.98836 42.7366L9.42446 51.4045C10.3841 52.5231 10.9131 53.9595 10.9131 55.4465Z" fill="#FCC4AE"/>
<path d="M24.9311 59.5227H26.433V53.2354C26.433 51.6244 26.1223 50.0291 25.5184 48.5407C24.9146 47.0523 24.0295 45.6999 22.9138 44.5608L21.4119 43.0273C23.6651 45.328 24.931 48.4483 24.9311 51.7019V59.5227ZM6.61211 32.7398C7.65562 31.7127 9.19054 31.5443 10.4464 32.1448C10.1409 32.2977 9.86067 32.4985 9.61587 32.7398C8.24105 34.0929 8.22603 36.3285 9.57051 37.7012L17.2151 45.507C17.4142 45.7103 17.5261 45.9861 17.5261 46.2737C17.5261 46.5613 17.4142 46.8371 17.2151 47.0405C17.0159 47.2438 16.7458 47.3581 16.4641 47.3581C16.1825 47.3581 15.9123 47.2438 15.7132 47.0405L6.56676 37.7012C5.22198 36.3281 5.23729 34.0929 6.61211 32.7398Z" fill="#F2AD97"/>
<path d="M30.1469 70.4666V61.0562C30.1469 60.6495 29.9887 60.2594 29.7071 59.9719C29.4254 59.6843 29.0434 59.5227 28.6451 59.5227H8.70854C8.31022 59.5227 7.92821 59.6843 7.64655 59.9719C7.3649 60.2594 7.20667 60.6495 7.20667 61.0562V70.4666C7.20667 70.8733 7.3649 71.2633 7.64655 71.5509C7.92821 71.8385 8.31022 72.0001 8.70854 72.0001H28.6451C29.0434 72.0001 29.4254 71.8385 29.7071 71.5509C29.9887 71.2633 30.1469 70.8733 30.1469 70.4666Z" fill="#0051BA"/>
<path d="M8.70854 72.0001C8.31022 72.0001 7.92821 71.8385 7.64655 71.5509C7.3649 71.2633 7.20667 70.8733 7.20667 70.4666V68.9331H25.6413C26.0396 68.9331 26.4216 68.7715 26.7033 68.4839C26.985 68.1964 27.1432 67.8063 27.1432 67.3996V59.5227H28.6451C29.0434 59.5227 29.4254 59.6843 29.7071 59.9719C29.9887 60.2594 30.1469 60.6495 30.1469 61.0562V70.4666C30.1469 70.8733 29.9887 71.2633 29.7071 71.5509C29.4254 71.8385 29.0434 72.0001 28.6451 72.0001H8.70854Z" fill="#3374C8"/>
</svg>
