<svg width="73" height="72" viewBox="0 0 73 72" fill="none" xmlns="http://www.w3.org/2000/svg">
<path d="M71.5927 41.0571C71.0466 30.4424 66.5632 20.4124 59.0182 12.9261L54.7889 8.71948H44.6749L40.4343 12.9261C36.4366 16.8989 33.2636 21.6227 31.0978 26.826C28.9321 32.0293 27.8162 37.6094 27.8145 43.2455V64.4713C27.8145 68.1563 30.8078 71.1497 34.4929 71.1497H64.9596C68.656 71.1497 71.6494 68.1563 71.6494 64.4713V43.2455C71.6494 42.5198 71.6267 41.7828 71.5927 41.0571ZM52.3625 18.0171C53.3036 17.4615 54.4601 17.4502 55.56 17.9037C56.6711 18.3459 57.7256 19.253 58.4626 20.4889L63.0548 28.1992C64.5401 30.6823 64.2113 33.6077 62.3291 34.7302C60.4356 35.8527 57.7143 34.7415 56.2403 32.2584L51.6368 24.5481C50.1628 22.065 50.4803 19.1396 52.3625 18.0171Z" fill="#0051BA"/>
<path d="M64.9597 71.9998H34.4929C32.4971 71.9968 30.5839 71.2026 29.1726 69.7913C27.7613 68.38 26.9671 66.4668 26.9641 64.471V43.2451C26.9599 37.4949 28.0951 31.8008 30.3039 26.4917C32.5128 21.1826 35.7517 16.3638 39.8334 12.3135L44.074 8.10687C44.2334 7.94734 44.4495 7.85762 44.675 7.85742H54.789C55.0158 7.85742 55.2312 7.94813 55.3899 8.10687L59.6192 12.3135C63.7034 16.3602 66.9448 21.1765 69.1557 26.4839C71.3666 31.7912 72.5032 37.4843 72.4999 43.2338V64.4596C72.4999 68.6209 69.121 71.9998 64.9597 71.9998ZM45.0265 9.56955L41.0353 13.5267C33.6397 20.8641 29.2486 30.6975 28.7216 41.1021C28.6876 41.8051 28.6649 42.5308 28.6649 43.2451V64.471C28.6649 67.6798 31.2841 70.299 34.4929 70.299H64.9597C68.1799 70.299 70.7991 67.6798 70.7991 64.471V43.2451C70.7991 42.5308 70.7764 41.8051 70.7424 41.1021C70.2185 30.6978 65.8221 20.8657 58.4173 13.5381L54.4375 9.58089H45.0265V9.56955ZM60.7077 36.0111C58.8029 36.0111 56.7506 34.7866 55.5033 32.6889L50.8999 24.9787C49.1877 22.0873 49.6413 18.6404 51.9203 17.2798C53.0655 16.6108 54.5055 16.5428 55.8775 17.1097C57.1928 17.6313 58.372 18.6744 59.1884 20.0464L63.7805 27.7566C64.7443 29.3667 65.0618 31.2036 64.6649 32.791C64.3701 33.9475 63.7011 34.8999 62.76 35.4555C62.1364 35.8297 61.4334 36.0111 60.7077 36.0111ZM52.7934 18.7425C51.3194 19.6155 51.1266 22.0306 52.3625 24.1056L56.966 31.8158C58.2019 33.8908 60.4129 34.8659 61.8869 33.9928C62.5899 33.5733 62.8847 32.8817 63.0095 32.3714C63.2929 31.2376 63.0321 29.8316 62.3178 28.6297L57.7257 20.9195C57.1134 19.8877 56.2063 19.0713 55.2425 18.6858C54.3468 18.3229 53.4851 18.3456 52.7934 18.7425Z" fill="black"/>
<path d="M27.8145 41.0574H71.6494V61.1153H27.8145V41.0574Z" fill="white"/>
<path d="M71.6495 61.965H27.8145C27.3496 61.965 26.9641 61.5795 26.9641 61.1146V41.0567C26.9641 40.5918 27.3496 40.2063 27.8145 40.2063H71.6495C72.1143 40.2063 72.4999 40.5918 72.4999 41.0567V61.1146C72.4999 61.5909 72.1143 61.965 71.6495 61.965ZM28.6649 60.2642H70.7991V41.9071H28.6649V60.2642Z" fill="black"/>
<path d="M57.3516 2.44908V7.12058C57.3516 8.00499 56.6373 8.71932 55.7529 8.71932H43.7113C42.8269 8.71932 42.1125 8.00499 42.1125 7.12058V2.44908C42.1125 1.56467 42.8269 0.850342 43.7113 0.850342H55.7415C56.6259 0.850342 57.3516 1.57601 57.3516 2.44908Z" fill="white"/>
<path d="M55.7532 9.56976H43.7116C42.3623 9.56976 41.2625 8.46992 41.2625 7.12063V2.44913C41.2625 1.09984 42.3623 0 43.7116 0H55.7418C57.0911 0 58.191 1.09984 58.191 2.44913V7.12063C58.2023 8.46992 57.1024 9.56976 55.7532 9.56976ZM43.7116 1.70079C43.3034 1.70079 42.9632 2.04094 42.9632 2.44913V7.12063C42.9632 7.52882 43.3034 7.86897 43.7116 7.86897H55.7418C56.15 7.86897 56.4902 7.52882 56.4902 7.12063V2.44913C56.4902 2.04094 56.15 1.70079 55.7418 1.70079H43.7116Z" fill="black"/>
<path d="M35.3662 41.9187V66.6141C35.3662 69.1199 33.3365 71.1496 30.8307 71.1496H12.689C10.1832 71.1496 8.15356 69.1199 8.15356 66.6141V41.9187C8.15356 35.2743 11.0449 28.97 16.0906 24.6614H27.4291C32.4635 28.97 35.3662 35.2743 35.3662 41.9187Z" fill="#FFD633"/>
<path d="M30.831 72.0002H12.6893C9.71858 72.0002 7.30347 69.5851 7.30347 66.6144V41.919C7.30347 35.0251 10.3082 28.5055 15.5353 24.0154C15.694 23.8793 15.8868 23.8113 16.0909 23.8113H27.4294C27.6335 23.8113 27.8263 23.8793 27.985 24.0154C33.2235 28.5055 36.2168 35.0251 36.2168 41.919V66.6144C36.2139 68.0419 35.6455 69.4101 34.6361 70.4195C33.6267 71.4289 32.2585 71.9973 30.831 72.0002ZM16.4083 25.5121C14.0801 27.5644 12.2156 30.089 10.939 32.918C9.66231 35.7469 9.00278 38.8153 9.00425 41.919V66.6144C9.00425 68.644 10.6597 70.2995 12.6893 70.2995H30.831C32.8606 70.2995 34.5161 68.644 34.5161 66.6144V41.919C34.5161 35.6261 31.8175 29.662 27.112 25.5121H16.4083Z" fill="black"/>
<path d="M28.0415 49.0397C28.0415 52.498 25.2636 55.2986 21.8053 55.2986C18.347 55.2986 15.5691 52.498 15.5691 49.0397C15.5691 45.6041 18.347 42.8035 21.8053 42.8035C25.2522 42.8035 28.0415 45.6041 28.0415 49.0397Z" fill="white"/>
<path d="M21.8054 56.1483C17.8936 56.1483 14.7188 52.9622 14.7188 49.039C14.7188 45.1272 17.8936 41.9524 21.8054 41.9524C25.7172 41.9524 28.892 45.1272 28.892 49.039C28.892 52.9622 25.7058 56.1483 21.8054 56.1483ZM21.8054 43.6532C18.8347 43.6532 16.4195 46.0683 16.4195 49.039C16.4195 52.0211 18.8347 54.4475 21.8054 54.4475C24.7761 54.4475 27.1912 52.0211 27.1912 49.039C27.1912 46.0683 24.7761 43.6532 21.8054 43.6532Z" fill="black"/>
<path d="M16.0906 18.9922H27.4292V24.6615H16.0906V18.9922Z" fill="white"/>
<path d="M27.4292 25.5119H16.0906C15.6257 25.5119 15.2402 25.1264 15.2402 24.6615V18.9922C15.2402 18.5274 15.6257 18.1418 16.0906 18.1418H27.4292C27.8941 18.1418 28.2796 18.5274 28.2796 18.9922V24.6615C28.2796 25.1264 27.8941 25.5119 27.4292 25.5119ZM16.941 23.8111H26.5788V19.8426H16.941V23.8111Z" fill="black"/>
<path d="M1.35038 11.4068V8.43606C1.35038 7.95984 1.63385 7.54032 2.07605 7.37024L7.01967 5.38599V14.4569L2.07605 12.4726C1.86097 12.39 1.67624 12.2436 1.54656 12.0532C1.41688 11.8627 1.34844 11.6372 1.35038 11.4068Z" fill="white"/>
<path d="M7.01969 15.3069C6.91764 15.3069 6.80426 15.2842 6.70221 15.2502L1.75859 13.266C1.38645 13.1181 1.06741 12.8616 0.842951 12.53C0.618493 12.1984 0.499 11.8069 0.500006 11.4064V8.43573C0.500006 7.60801 0.987565 6.88234 1.75859 6.5762L6.70221 4.59195C6.963 4.4899 7.2578 4.52392 7.49591 4.68266C7.73402 4.8414 7.87008 5.10219 7.87008 5.38565V14.4565C7.87008 14.74 7.73402 15.0008 7.49591 15.1595C7.34851 15.2616 7.18977 15.3069 7.01969 15.3069ZM6.1693 6.64423L2.39355 8.15226C2.33855 8.17414 2.29108 8.21148 2.25687 8.25978C2.22266 8.30807 2.20318 8.36525 2.20079 8.42439V11.4064C2.20079 11.5312 2.26883 11.6445 2.39355 11.6899L6.1693 13.1979V6.64423Z" fill="black"/>
<path d="M32.9055 14.4569H29.5493C28.3814 14.4569 27.429 15.4093 27.429 16.5885V18.9923H16.0904L14.6164 16.0329C14.377 15.5587 14.0107 15.1603 13.5583 14.882C13.1059 14.6037 12.585 14.4566 12.0539 14.4569H7.01953V5.38599H25.1613C29.6967 5.38599 33.4611 8.73087 34.1301 13.0735C34.2321 13.7992 33.6425 14.4569 32.9055 14.4569Z" fill="#FFEB99"/>
<path d="M27.429 19.8422H16.0904C15.9335 19.8413 15.7798 19.7975 15.6459 19.7156C15.512 19.6336 15.403 19.5167 15.3308 19.3774L13.8567 16.418C13.5166 15.7377 12.8249 15.3068 12.0653 15.3068H7.01958C6.5547 15.3068 6.16919 14.9213 6.16919 14.4564V5.38555C6.16919 4.92067 6.5547 4.53516 7.01958 4.53516H25.1613C30.0142 4.53516 34.2322 8.15216 34.9692 12.9484C35.0599 13.5267 34.8898 14.1276 34.493 14.5811C34.0961 15.046 33.5178 15.3068 32.9056 15.3068H29.5493C28.8464 15.3068 28.2681 15.8851 28.2681 16.5881V18.9918C28.2696 19.103 28.249 19.2133 28.2075 19.3164C28.166 19.4195 28.1044 19.5134 28.0264 19.5925C27.9483 19.6716 27.8553 19.7344 27.7528 19.7773C27.6502 19.8202 27.5402 19.8423 27.429 19.8422ZM16.612 18.1415H26.5786V16.5881C26.5786 14.944 27.9166 13.606 29.5607 13.606H32.9169C33.0303 13.606 33.1323 13.5607 33.2117 13.47C33.2457 13.4246 33.3138 13.3339 33.2911 13.1978C32.6788 9.22933 29.1865 6.2246 25.1613 6.2246H7.86998V13.5947H12.0539C13.4712 13.5947 14.7412 14.377 15.3761 15.647L16.612 18.1415Z" fill="black"/>
<path d="M7.01953 14.4563V18.4928C7.01953 19.5587 7.33701 20.6131 7.92662 21.4976L9.28725 23.5272" fill="white"/>
<path d="M9.2873 24.3779C9.01517 24.3779 8.74305 24.2418 8.58431 24.0037L7.22368 21.9627C6.53202 20.9309 6.16919 19.729 6.16919 18.4818V14.4566C6.16919 14.2311 6.25878 14.0148 6.41826 13.8553C6.57774 13.6958 6.79404 13.6062 7.01958 13.6062C7.24512 13.6062 7.46142 13.6958 7.6209 13.8553C7.78038 14.0148 7.86998 14.2311 7.86998 14.4566V18.4931C7.86998 19.4002 8.13076 20.2733 8.641 21.0216L10.0016 23.0626C10.2624 23.4481 10.1604 23.981 9.76352 24.2418C9.61612 24.3325 9.44604 24.3779 9.2873 24.3779Z" fill="black"/>
</svg>
