<svg width="73" height="72" viewBox="0 0 73 72" fill="none" xmlns="http://www.w3.org/2000/svg">
<path d="M19.9754 10.4727H10.5328C10.3763 10.4727 10.2262 10.5417 10.1155 10.6644C10.0048 10.7872 9.94264 10.9537 9.94264 11.1273V13.7455C9.94264 13.9191 10.0048 14.0855 10.1155 14.2083C10.2262 14.331 10.3763 14.4 10.5328 14.4H19.9754C20.1319 14.4 20.2821 14.331 20.3927 14.2083C20.5034 14.0855 20.5656 13.9191 20.5656 13.7455V11.1273C20.5656 10.9537 20.5034 10.7872 20.3927 10.6644C20.2821 10.5417 20.1319 10.4727 19.9754 10.4727ZM62.4672 10.4727H53.0246C52.8681 10.4727 52.718 10.5417 52.6073 10.6644C52.4966 10.7872 52.4344 10.9537 52.4344 11.1273V13.7455C52.4344 13.9191 52.4966 14.0855 52.6073 14.2083C52.718 14.331 52.8681 14.4 53.0246 14.4H62.4672C62.6238 14.4 62.7739 14.331 62.8845 14.2083C62.9952 14.0855 63.0574 13.9191 63.0574 13.7455V11.1273C63.0574 10.9537 62.9952 10.7872 62.8845 10.6644C62.7739 10.5417 62.6238 10.4727 62.4672 10.4727ZM43.582 0H29.418C26.4897 0 24.1066 2.64305 24.1066 5.89091V13.7455C24.1066 13.9191 24.1688 14.0855 24.2794 14.2083C24.3901 14.331 24.5402 14.4 24.6967 14.4H28.2377C28.3942 14.4 28.5444 14.331 28.655 14.2083C28.7657 14.0855 28.8279 13.9191 28.8279 13.7455V5.89091C28.8279 5.54204 29.1035 5.23636 29.418 5.23636H43.582C43.8965 5.23636 44.1721 5.54204 44.1721 5.89091V13.7455C44.1721 13.9191 44.2343 14.0855 44.345 14.2083C44.4557 14.331 44.6058 14.4 44.7623 14.4H48.3033C48.4598 14.4 48.6099 14.331 48.7206 14.2083C48.8313 14.0855 48.8935 13.9191 48.8935 13.7455V5.89091C48.8935 2.64305 46.5104 0 43.582 0Z" fill="#F5F5F5"/>
<path d="M64.8279 13.0908H8.17213C3.94184 13.0908 0.5 16.9081 0.5 21.5999V63.4908C0.5 68.1826 3.94184 71.9999 8.17213 71.9999H64.8279C69.0582 71.9999 72.5 68.1826 72.5 63.4908V21.5999C72.5 16.9081 69.0582 13.0908 64.8279 13.0908Z" fill="#F44336"/>
<path d="M36.4999 20.9457C25.7613 20.9457 17.0245 30.6356 17.0245 42.5457C17.0245 54.4558 25.7613 64.1457 36.4999 64.1457C47.2386 64.1457 55.9754 54.4558 55.9754 42.5457C55.9754 30.6356 47.2386 20.9457 36.4999 20.9457Z" fill="#E0E0E0"/>
<path d="M48.3033 37.9637H40.6312V29.4546C40.6312 29.281 40.569 29.1145 40.4583 28.9918C40.3476 28.869 40.1975 28.8 40.041 28.8H32.959C32.8025 28.8 32.6524 28.869 32.5417 28.9918C32.431 29.1145 32.3689 29.281 32.3689 29.4546V37.9637H24.6967C24.5402 37.9637 24.3901 38.0326 24.2794 38.1554C24.1687 38.2781 24.1066 38.4446 24.1066 38.6182V46.4728C24.1066 46.6464 24.1687 46.8129 24.2794 46.9356C24.3901 47.0584 24.5402 47.1273 24.6967 47.1273H32.3689V55.6364C32.3689 55.81 32.431 55.9765 32.5417 56.0992C32.6524 56.222 32.8025 56.291 32.959 56.291H40.041C40.1975 56.291 40.3476 56.222 40.4583 56.0992C40.569 55.9765 40.6312 55.81 40.6312 55.6364V47.1273H48.3033C48.4598 47.1273 48.6099 47.0584 48.7206 46.9356C48.8313 46.8129 48.8934 46.6464 48.8934 46.4728V38.6182C48.8934 38.4446 48.8313 38.2781 48.7206 38.1554C48.6099 38.0326 48.4598 37.9637 48.3033 37.9637Z" fill="#F44336"/>
<path d="M3.45088 31.4184C3.29436 31.4184 3.14425 31.3494 3.03357 31.2267C2.9229 31.1039 2.86072 30.9375 2.86072 30.7639V21.6002C2.86072 21.4266 2.9229 21.2601 3.03357 21.1374C3.14425 21.0146 3.29436 20.9457 3.45088 20.9457C3.6074 20.9457 3.75751 21.0146 3.86819 21.1374C3.97887 21.2601 4.04105 21.4266 4.04105 21.6002V30.7639C4.04105 30.9375 3.97887 31.1039 3.86819 31.2267C3.75751 31.3494 3.6074 31.4184 3.45088 31.4184ZM3.45088 37.9639C3.29436 37.9639 3.14425 37.8949 3.03357 37.7721C2.9229 37.6494 2.86072 37.4829 2.86072 37.3093V34.6911C2.86072 34.5175 2.9229 34.351 3.03357 34.2283C3.14425 34.1055 3.29436 34.0366 3.45088 34.0366C3.6074 34.0366 3.75751 34.1055 3.86819 34.2283C3.97887 34.351 4.04105 34.5175 4.04105 34.6911V37.3093C4.04105 37.4829 3.97887 37.6494 3.86819 37.7721C3.75751 37.8949 3.6074 37.9639 3.45088 37.9639Z" fill="#EF9A9A"/>
</svg>
