<svg width="67" height="62" viewBox="0 0 67 62" fill="none" xmlns="http://www.w3.org/2000/svg">
<path d="M41.9036 0.895752H45.0254V7.85669H41.9036V0.895752Z" fill="#0051BA"/>
<path d="M46.8535 28.9364H22.5535V9.74104L34.7035 3.51135L46.8535 9.74104V28.9364Z" fill="#6697D6"/>
<path d="M48.6114 12.2442L34.7036 5.08643L20.8098 12.2442L19.5442 9.81143L34.7036 1.99268L49.877 9.81143L48.6114 12.2442Z" fill="#0051BA"/>
<path d="M39.7098 18.8395C39.6816 18.8817 39.6395 18.9098 39.6113 18.938L34.9004 23.6489C34.802 23.7473 34.6473 23.7473 34.5348 23.6489L29.8238 18.938L29.7254 18.8395C28.4457 17.4473 28.4738 15.2958 29.8238 13.9458C30.5129 13.2567 31.427 12.9052 32.327 12.9052C33.1848 12.9052 34.0566 13.2145 34.7316 13.8473C35.4066 13.2145 36.2645 12.9052 37.1363 12.9052C38.0363 12.9052 38.9504 13.2427 39.6395 13.9458C40.9613 15.3098 40.9754 17.4614 39.7098 18.8395Z" fill="#FFCC00"/>
<path d="M13.3989 34.0692L3.82229 43.6598C3.2176 44.2645 3.2176 45.277 3.82229 45.8957L16.0989 58.1442C16.7035 58.7488 17.716 58.7488 18.3348 58.1442L28.6848 47.7801L45.2082 47.766C47.402 47.766 49.4832 46.8942 51.0301 45.3473L64.8254 31.5239C66.4004 29.9489 66.4989 27.3754 64.9239 25.7723C64.1223 24.9426 63.0817 24.5348 61.9848 24.5348C60.9301 24.5348 59.9035 24.9285 59.116 25.716L47.4582 37.402C46.5864 38.2739 45.4051 38.766 44.1535 38.766H43.366H43.3942C44.8285 38.6817 46.0379 37.7114 46.516 36.4317C46.6567 36.0379 46.727 35.6582 46.727 35.2364C46.727 34.252 46.3332 33.3942 45.6723 32.7332C45.0395 32.1004 44.1535 31.6785 43.1692 31.6785L19.0239 31.7207C17.9551 31.7207 16.9285 31.9457 15.9723 32.3254C15.016 32.7192 14.1582 33.3098 13.3989 34.0692Z" fill="#ECC396"/>
<path d="M30.3582 37.4301C30.3582 38.1613 30.9629 38.766 31.7082 38.7801L43.3801 38.766C44.8145 38.6816 46.0239 37.7113 46.502 36.4316C46.2489 36.2207 45.9535 36.0801 45.5739 36.0801H31.6942C30.9489 36.0801 30.3442 36.6848 30.3582 37.4301ZM13.3989 34.0691L3.82229 43.6598C3.2176 44.2645 3.2176 45.2769 3.82229 45.8957L7.56291 49.6223L25.4223 31.7207H19.0098C17.941 31.7207 16.9145 31.9457 15.9582 32.3254C15.016 32.7191 14.1582 33.3098 13.3989 34.0691Z" fill="#D6B493"/>
<path d="M17.5473 60.7036L20.9785 57.2724C21.4989 56.752 21.4989 55.8942 20.9785 55.3739L6.66291 41.0724C6.1426 40.5521 5.28479 40.5521 4.76448 41.0724L1.33323 44.5036C0.812915 45.0239 0.812915 45.8817 1.33323 46.4021L15.6348 60.7036C16.1692 61.238 17.027 61.238 17.5473 60.7036Z" fill="#0051BA"/>
</svg>
