<svg width="73" height="72" viewBox="0 0 73 72" fill="none" xmlns="http://www.w3.org/2000/svg">
<path d="M51.6454 44.1291C51.3371 44.1291 51.0414 44.0067 50.8234 43.7889C50.6054 43.5712 50.483 43.2758 50.483 42.9678V29.0323H27.235V36C27.235 36.308 27.1125 36.6034 26.8945 36.8212C26.6765 37.039 26.3808 37.1613 26.0726 37.1613C25.7643 37.1613 25.4686 37.039 25.2506 36.8212C25.0326 36.6034 24.9102 36.308 24.9102 36V27.871C24.9102 27.563 25.0326 27.2676 25.2506 27.0498C25.4686 26.8321 25.7643 26.7097 26.0726 26.7097H51.6454C51.9537 26.7097 52.2493 26.8321 52.4673 27.0498C52.6853 27.2676 52.8078 27.563 52.8078 27.871V42.9678C52.8078 43.2758 52.6853 43.5712 52.4673 43.7889C52.2493 44.0067 51.9537 44.1291 51.6454 44.1291Z" fill="#231F20"/>
<path d="M51.6454 33.6774H26.0726C25.7643 33.6774 25.4686 33.5551 25.2506 33.3373C25.0326 33.1195 24.9102 32.8241 24.9102 32.5161C24.9102 32.2081 25.0326 31.9128 25.2506 31.695C25.4686 31.4772 25.7643 31.3548 26.0726 31.3548H51.6454C51.9537 31.3548 52.2493 31.4772 52.4673 31.695C52.6853 31.9128 52.8078 32.2081 52.8078 32.5161C52.8078 32.8241 52.6853 33.1195 52.4673 33.3373C52.2493 33.5551 51.9537 33.6774 51.6454 33.6774ZM51.6454 38.3226H43.7759C43.4676 38.3226 43.172 38.2002 42.954 37.9825C42.736 37.7647 42.6135 37.4693 42.6135 37.1613C42.6135 36.8533 42.736 36.5579 42.954 36.3401C43.172 36.1224 43.4676 36 43.7759 36H51.6454C51.9537 36 52.2493 36.1224 52.4673 36.3401C52.6853 36.5579 52.8078 36.8533 52.8078 37.1613C52.8078 37.4693 52.6853 37.7647 52.4673 37.9825C52.2493 38.2002 51.9537 38.3226 51.6454 38.3226ZM38.859 27.871C36.1002 27.871 33.4033 27.0537 31.1094 25.5224C28.8156 23.9912 27.0277 21.8147 25.972 19.2684C24.9162 16.722 24.64 13.92 25.1782 11.2168C25.7164 8.51359 27.0449 6.03053 28.9957 4.08162C30.9465 2.1327 33.4319 0.805476 36.1377 0.267773C38.8435 -0.269931 41.6481 0.00603805 44.197 1.06078C46.7458 2.11553 48.9243 3.90167 50.457 6.19335C51.9897 8.48503 52.8078 11.1793 52.8078 13.9355C52.8038 17.6302 51.3329 21.1724 48.7179 23.785C46.1028 26.3975 42.5572 27.867 38.859 27.871ZM38.859 2.32259C36.56 2.32259 34.3126 3.00367 32.401 4.27971C30.4895 5.55576 28.9996 7.36944 28.1198 9.49143C27.24 11.6134 27.0098 13.9484 27.4583 16.2011C27.9068 18.4537 29.0139 20.523 30.6396 22.1471C32.2652 23.7711 34.3364 24.8772 36.5912 25.3253C38.8461 25.7733 41.1833 25.5434 43.3073 24.6644C45.4313 23.7855 47.2467 22.297 48.524 20.3873C49.8013 18.4775 50.483 16.2323 50.483 13.9355C50.4796 10.8566 49.2538 7.90477 47.0747 5.72766C44.8955 3.55055 41.9408 2.32597 38.859 2.32259Z" fill="#231F20"/>
<path d="M40.0214 19.7421H35.3718C35.0635 19.7421 34.7678 19.6197 34.5498 19.4019C34.3318 19.1841 34.2094 18.8888 34.2094 18.5808C34.2094 18.2728 34.3318 17.9774 34.5498 17.7596C34.7678 17.5418 35.0635 17.4195 35.3718 17.4195H40.0214C40.3296 17.4195 40.6253 17.2971 40.8433 17.0793C41.0613 16.8616 41.1838 16.5662 41.1838 16.2582C41.1838 15.9502 41.0613 15.6548 40.8433 15.437C40.6253 15.2192 40.3296 15.0969 40.0214 15.0969H37.6966C36.7717 15.0969 35.8847 14.7298 35.2307 14.0765C34.5768 13.4231 34.2094 12.537 34.2094 11.613C34.2094 10.689 34.5768 9.8029 35.2307 9.14955C35.8847 8.4962 36.7717 8.12915 37.6966 8.12915H42.3462C42.6544 8.12915 42.9501 8.2515 43.1681 8.46928C43.3861 8.68707 43.5086 8.98245 43.5086 9.29044C43.5086 9.59843 43.3861 9.89381 43.1681 10.1116C42.9501 10.3294 42.6544 10.4517 42.3462 10.4517H37.6966C37.3883 10.4517 37.0926 10.5741 36.8746 10.7919C36.6566 11.0096 36.5342 11.305 36.5342 11.613C36.5342 11.921 36.6566 12.2164 36.8746 12.4342C37.0926 12.652 37.3883 12.7743 37.6966 12.7743H40.0214C40.9462 12.7743 41.8332 13.1414 42.4872 13.7947C43.1412 14.4481 43.5086 15.3342 43.5086 16.2582C43.5086 17.1822 43.1412 18.0683 42.4872 18.7217C41.8332 19.375 40.9462 19.7421 40.0214 19.7421Z" fill="#231F20"/>
<path d="M38.859 10.4516C38.5507 10.4516 38.255 10.3292 38.037 10.1114C37.819 9.89364 37.6966 9.59826 37.6966 9.29027V6.96769C37.6966 6.65969 37.819 6.36431 38.037 6.14653C38.255 5.92875 38.5507 5.8064 38.859 5.8064C39.1673 5.8064 39.4629 5.92875 39.6809 6.14653C39.8989 6.36431 40.0214 6.65969 40.0214 6.96769V9.29027C40.0214 9.59826 39.8989 9.89364 39.6809 10.1114C39.4629 10.3292 39.1673 10.4516 38.859 10.4516ZM38.859 22.0645C38.5507 22.0645 38.255 21.9421 38.037 21.7243C37.819 21.5065 37.6966 21.2112 37.6966 20.9032V18.5806C37.6966 18.2726 37.819 17.9772 38.037 17.7594C38.255 17.5416 38.5507 17.4193 38.859 17.4193C39.1673 17.4193 39.4629 17.5416 39.6809 17.7594C39.8989 17.9772 40.0214 18.2726 40.0214 18.5806V20.9032C40.0214 21.2112 39.8989 21.5065 39.6809 21.7243C39.4629 21.9421 39.1673 22.0645 38.859 22.0645ZM21.423 71.9999C21.1147 71.9999 20.8191 71.8775 20.6011 71.6597L0.840335 51.9178C0.622419 51.7 0.5 51.4047 0.5 51.0967C0.5 50.7888 0.622419 50.4935 0.840335 50.2757L8.97714 42.1467C9.19512 41.9289 9.49073 41.8066 9.79896 41.8066C10.1072 41.8066 10.4028 41.9289 10.6208 42.1467L30.3816 61.8886C30.5995 62.1064 30.7219 62.4017 30.7219 62.7096C30.7219 63.0176 30.5995 63.3129 30.3816 63.5307L22.2448 71.6597C22.0268 71.8775 21.7312 71.9999 21.423 71.9999ZM3.30579 51.0967L21.423 69.1966L27.9161 62.7096L9.79896 44.6098L3.30579 51.0967Z" fill="#231F20"/>
<path d="M12.1238 46.4515C11.8939 46.4515 11.6692 46.3833 11.4781 46.2557C11.287 46.1281 11.138 45.9468 11.0501 45.7346C10.9621 45.5224 10.9391 45.289 10.9839 45.0638C11.0288 44.8385 11.1394 44.6316 11.3019 44.4692L20.6011 35.1789C20.8191 34.9611 21.1147 34.8387 21.423 34.8386H41.1838C42.4169 34.8386 43.5996 35.328 44.4715 36.1992C45.3435 37.0703 45.8334 38.2518 45.8334 39.4838C45.8334 40.7158 45.3435 41.8973 44.4715 42.7684C43.5996 43.6395 42.4169 44.1289 41.1838 44.1289H33.047C32.7387 44.1289 32.443 44.0066 32.225 43.7888C32.007 43.571 31.8846 43.2756 31.8846 42.9677C31.8846 42.6597 32.007 42.3643 32.225 42.1465C32.443 41.9287 32.7387 41.8064 33.047 41.8064H41.1838C41.8004 41.8064 42.3917 41.5617 42.8277 41.1261C43.2636 40.6905 43.5086 40.0998 43.5086 39.4838C43.5086 38.8678 43.2636 38.277 42.8277 37.8415C42.3917 37.4059 41.8004 37.1612 41.1838 37.1612H21.9042L12.9456 46.1113C12.7276 46.3291 12.432 46.4515 12.1238 46.4515Z" fill="#231F20"/>
<path d="M27.235 61.5485C27.0051 61.5484 26.7804 61.4803 26.5893 61.3527C26.3982 61.2251 26.2492 61.0437 26.1613 60.8315C26.0733 60.6194 26.0503 60.3859 26.0951 60.1607C26.14 59.9354 26.2506 59.7285 26.4131 59.5661L32.2252 53.7597C32.4431 53.5419 32.7387 53.4195 33.047 53.4194H49.982L69.6626 32.6254C70.0566 32.2193 70.273 31.6735 70.2641 31.108C70.2553 30.5425 70.022 30.0037 69.6155 29.6101C69.209 29.2165 68.6627 29.0003 68.0967 29.0091C67.5307 29.0179 66.9913 29.251 66.5973 29.6571L52.4684 43.7888C52.3603 43.8968 52.232 43.9825 52.0908 44.0408C51.9496 44.0992 51.7982 44.1292 51.6454 44.1291H40.0214C39.7131 44.1291 39.4174 44.0068 39.1994 43.789C38.9814 43.5712 38.859 43.2758 38.859 42.9678C38.859 42.6598 38.9814 42.3644 39.1994 42.1467C39.4174 41.9289 39.7131 41.8065 40.0214 41.8065H51.163L64.9514 28.0139C65.7854 27.2141 66.8977 26.7691 68.0537 26.7727C69.2097 26.7763 70.3192 27.2282 71.1483 28.0331C71.9773 28.838 72.4611 29.9331 72.4978 31.0874C72.5344 32.2418 72.1209 33.3652 71.3446 34.221L51.328 55.3797C51.2193 55.4943 51.0882 55.5856 50.9429 55.6479C50.7976 55.7102 50.6411 55.7422 50.483 55.742H33.5282L28.0568 61.2082C27.8388 61.426 27.5432 61.5484 27.235 61.5485Z" fill="#231F20"/>
</svg>
