<svg width="73" height="72" viewBox="0 0 73 72" fill="none" xmlns="http://www.w3.org/2000/svg">
<path d="M36.5 32.6569C38.7568 32.6569 40.5863 31.0132 40.5863 28.9857C40.5863 26.9581 38.7568 25.3145 36.5 25.3145C34.2433 25.3145 32.4138 26.9581 32.4138 28.9857C32.4138 31.0132 34.2433 32.6569 36.5 32.6569Z" fill="#FFD0C8"/>
<path d="M36.1552 32.6497H36.8449C38.3211 32.6497 39.7368 33.1764 40.7807 34.1141C41.8247 35.0518 42.4113 36.3236 42.4117 37.6498V41.361H30.5884V37.6498C30.5888 36.3236 31.1754 35.0518 32.2194 34.1141C33.2633 33.1764 34.679 32.6497 36.1552 32.6497Z" fill="#3374C8"/>
<path d="M22.8321 29.8733C25.7929 29.8733 28.1932 27.7168 28.1932 25.0566C28.1932 22.3965 25.7929 20.24 22.8321 20.24C19.8712 20.24 17.4709 22.3965 17.4709 25.0566C17.4709 27.7168 19.8712 29.8733 22.8321 29.8733Z" fill="#FFD0C8"/>
<path d="M22.8321 29.8635C20.7752 29.8637 18.8026 30.5979 17.3481 31.9048C15.8937 33.2116 15.0767 34.9839 15.0767 36.832V41.3622H30.589V36.832C30.589 35.9168 30.3884 35.0106 29.9986 34.1651C29.6087 33.3196 29.0373 32.5514 28.317 31.9043C27.5967 31.2572 26.7416 30.7439 25.8005 30.3938C24.8594 30.0436 23.8508 29.8634 22.8321 29.8635Z" fill="#0051BA"/>
<path d="M50.1678 29.9411C53.1286 29.9411 55.5289 27.7847 55.5289 25.1245C55.5289 22.4643 53.1286 20.3079 50.1678 20.3079C47.2069 20.3079 44.8066 22.4643 44.8066 25.1245C44.8066 27.7847 47.2069 29.9411 50.1678 29.9411Z" fill="#FFD0C8"/>
<path d="M50.0865 29.967C48.0294 29.967 46.0566 30.7012 44.6021 32.008C43.1475 33.3149 42.3303 35.0873 42.3303 36.9355V41.3978H57.842V36.9355C57.842 35.0874 57.0249 33.3151 55.5705 32.0083C54.1161 30.7015 52.1434 29.9672 50.0865 29.967Z" fill="#0051BA"/>
<path d="M42.4929 17.7173H42.4894C36.765 21.758 36.6272 21.753 30.8739 17.744C15.2986 6.89415 28.6512 -5.96524 36.5353 3.05024C43.5184 -5.97667 57.8562 6.86875 42.4929 17.7173Z" fill="#FFCC00"/>
<path d="M35.1573 13.5579C35.018 13.5579 34.8802 13.5333 34.7515 13.4855C34.6228 13.4377 34.5059 13.3675 34.4074 13.2791L31.6378 10.7921C31.5366 10.7042 31.4558 10.5991 31.4003 10.4829C31.3447 10.3667 31.3155 10.2418 31.3142 10.1153C31.313 9.98883 31.3398 9.86342 31.3931 9.74637C31.4465 9.62932 31.5252 9.52299 31.6247 9.43356C31.7242 9.34414 31.8426 9.27342 31.9729 9.22553C32.1031 9.17764 32.2427 9.15355 32.3835 9.15464C32.5242 9.15574 32.6633 9.18202 32.7927 9.23193C32.922 9.28185 33.039 9.3544 33.1368 9.44537L35.1573 11.2587L39.8654 7.02879C39.9632 6.93783 40.0802 6.86527 40.2095 6.81536C40.3388 6.76545 40.4779 6.73917 40.6187 6.73807C40.7594 6.73697 40.899 6.76107 41.0293 6.80896C41.1596 6.85685 41.2779 6.92757 41.3775 7.01699C41.477 7.10641 41.5557 7.21275 41.609 7.3298C41.6623 7.44685 41.6891 7.57226 41.6879 7.69872C41.6867 7.82518 41.6575 7.95015 41.6019 8.06635C41.5463 8.18255 41.4656 8.28764 41.3643 8.3755L35.9064 13.2791C35.7077 13.4575 35.4382 13.5578 35.1573 13.5579Z" fill="#F8FFFB"/>
<path d="M32.2739 61.8918V72H14.3587V67.3141C14.3593 66.4954 14.1684 65.6857 13.7983 64.9375C13.4282 64.1893 12.8871 63.5194 12.2102 62.9712L3.90636 56.2599C2.83354 55.3911 1.97591 54.3294 1.3891 53.1437C0.802279 51.958 0.499368 50.6748 0.500001 49.3772V32.9767C0.500372 32.1525 0.85267 31.3598 1.48428 30.7621C2.11589 30.1644 2.97867 29.8071 3.89479 29.7639C4.81091 29.7208 5.71054 29.9951 6.40826 30.5302C7.10597 31.0653 7.54859 31.8206 7.64488 32.6402L8.69081 41.6182L8.92403 43.631V43.6564C9.37772 43.489 9.86519 43.4082 10.3555 43.4192C10.8458 43.4301 11.3282 43.5325 11.7721 43.7199C12.0049 43.8128 12.2234 43.9323 12.4223 44.0754C12.5071 44.1293 12.5875 44.1887 12.6625 44.2532L22.7544 52.4947L26.5424 53.9995C28.2474 54.6731 29.6973 55.7781 30.715 57.1795C31.7328 58.581 32.2744 60.2184 32.2739 61.8918ZM72.5 32.9767V49.3772C72.5006 50.6748 72.1977 51.958 71.6109 53.1437C71.0241 54.3294 70.1665 55.3911 69.0936 56.2599L60.7898 62.9712C60.1129 63.5194 59.5718 64.1893 59.2017 64.9375C58.8316 65.6857 58.6407 66.4954 58.6413 67.3141V72H40.7262V61.8918C40.7256 60.2184 41.2672 58.581 42.285 57.1795C43.3027 55.7781 44.7526 54.6731 46.4576 53.9995L50.2456 52.4947L60.3375 44.2532C60.4125 44.1887 60.4929 44.1293 60.5777 44.0754C60.7766 43.9323 60.9951 43.8128 61.2279 43.7199C61.6718 43.5325 62.1542 43.4301 62.6445 43.4192C63.1348 43.4082 63.6223 43.489 64.076 43.6564V43.631L64.3092 41.6182L65.3551 32.6402C65.4514 31.8206 65.894 31.0653 66.5917 30.5302C67.2895 29.9951 68.1891 29.7208 69.1052 29.7639C70.0213 29.8071 70.8841 30.1644 71.5157 30.7621C72.1473 31.3598 72.4996 32.1525 72.5 32.9767Z" fill="#FFD0C8"/>
<path d="M17.751 56.5709C17.5541 56.751 17.2857 56.8535 17.0048 56.8558C16.7239 56.8582 16.4534 56.7603 16.2527 56.5836L7.04427 48.4818C6.48677 47.9913 6.07667 47.3818 5.85222 46.7104C5.62776 46.0389 5.59628 45.3273 5.7607 44.642C5.92511 43.9567 6.28008 43.3199 6.79247 42.7911C7.30487 42.2624 7.95799 41.8588 8.69091 41.6182L8.92413 43.6309C8.76569 43.7222 8.61877 43.8286 8.48596 43.9484C8.25586 44.1583 8.0743 44.407 7.95179 44.6803C7.82927 44.9536 7.76823 45.2459 7.77217 45.5405C7.77611 45.8351 7.84497 46.126 7.97476 46.3966C8.10455 46.6671 8.29271 46.9119 8.52837 47.1167L17.7368 55.2249C17.9373 55.4018 18.0513 55.6429 18.054 55.8953C18.0566 56.1477 17.9476 56.3907 17.751 56.5709ZM67.3482 45.5611C67.3424 46.1065 67.2164 46.6454 66.9774 47.1467C66.7384 47.648 66.3913 48.1018 65.9559 48.4818L56.7474 56.5836C56.5468 56.7603 56.2763 56.8582 55.9954 56.8558C55.7145 56.8535 55.4461 56.751 55.2492 56.5709C55.0526 56.3907 54.9436 56.1477 54.9462 55.8953C54.9489 55.6429 55.0629 55.4018 55.2634 55.2249L64.4718 47.1167C64.7075 46.9119 64.8956 46.6671 65.0254 46.3966C65.1552 46.126 65.2241 45.8351 65.228 45.5405C65.232 45.2459 65.1709 44.9536 65.0484 44.6803C64.9259 44.407 64.7443 44.1583 64.5142 43.9484C64.3814 43.8286 64.2345 43.7222 64.0761 43.6309L64.3093 41.6182C65.2066 41.9135 65.9804 42.451 66.5244 43.1569C67.0684 43.8628 67.3562 44.7025 67.3482 45.5611Z" fill="#FFAA9C"/>
</svg>
