<svg xmlns="http://www.w3.org/2000/svg" width="36.115" height="36.2" viewBox="0 0 36.115 36.2">
  <g id="Group_19" data-name="Group 19" transform="translate(-2312.129 -4162.081)">
    <g id="Group_18" data-name="Group 18" transform="translate(2312.129 4162.081)">
      <g id="FreeSample-Vectorizer-io-لقطة_شاشة_2025-03-02_220822_1_" data-name="FreeSample-Vectorizer-io-لقطة شاشة 2025-03-02 220822 (1)" transform="translate(0 0)">
        <g id="Group_13" data-name="Group 13" transform="translate(0 3.119)">
          <path id="Path_44" data-name="Path 44" d="M39.346,67.094A19.221,19.221,0,0,1,37.19,56.94a18.565,18.565,0,0,1,2.131-7.271,5.047,5.047,0,0,0,.627-1.2c.075-.326.251-.552.376-.5.1.05,1.053.878,2.131,1.83a22.5,22.5,0,0,1,4.087,5.015c2.357,3.585,7.221,8.9,8.174,8.9.351,0-.226-.727-2.206-2.758A16.534,16.534,0,0,1,49.9,57.918a1.4,1.4,0,0,1,.527-.577c.351-.226.953.251,3.661,2.959,2.031,2.031,3.335,3.159,3.535,3.034s-.7-1.178-2.608-3.134c-1.906-1.906-2.908-3.109-2.908-3.46,0-1.178,1.028-.6,3.886,2.206C58.5,61.453,59.379,62.1,59.379,61.5A30.367,30.367,0,0,0,56.5,58.394a30.877,30.877,0,0,1-2.883-3.159,1.181,1.181,0,0,1,.4-.652c.527-.527.928-.251,3.535,2.482,1.931,1.981,2.583,2.457,2.583,1.906a43.184,43.184,0,0,0-3.51-3.686c-2.507-2.457-3.51-3.611-3.51-4.037,0-1.153,1.053-.7,2.984,1.3,1,1.028,1.855,1.88,1.906,1.88s.15-.2.226-.426c.226-.552-3.736-4.588-4.488-4.588a25.685,25.685,0,0,1-2.934-.6,8.4,8.4,0,0,1-3.585-1.454A23.871,23.871,0,0,1,43.884,44.3a6.536,6.536,0,0,0,.652-.5l.577-.5,1.555,1.555c1.555,1.529,1.555,1.529,4.563,2.307,1.655.426,3.31.878,3.661,1.028a17.542,17.542,0,0,1,2.959,2.583c2.482,2.557,2.783,3.234,1.7,4.162l-.577.527,1.329,1.329c1.479,1.479,1.655,2.181.827,3.209-.3.4-.4.7-.226.878.4.4-.025,1.755-.677,2.106a5.36,5.36,0,0,0-1.279,1.178c-.6.8-.727.852-1.73.7a2.6,2.6,0,0,0-1.805.276,1.872,1.872,0,0,1-1.329.251c-1.153-.3-6.419-6.043-9-9.8a28.737,28.737,0,0,0-2.833-3.761c-.777-.5-1.279.15-1.88,2.507a16.365,16.365,0,0,0,1.1,11.208l.451.953-.9.9-.9.9-.777-1.2Z" transform="translate(-37.129 -43.3)" fill="#036"/>
          <path id="Path_45" data-name="Path 45" d="M66.1,85.946c-.351-.351-.527-.727-.426-.827.226-.226,1.229.8,1.1,1.178C66.725,86.447,66.449,86.322,66.1,85.946Z" transform="translate(-51.345 -64.132)" fill="#036"/>
          <path id="Path_46" data-name="Path 46" d="M83.5,81.728a1.723,1.723,0,0,1,.476-.677,4.915,4.915,0,0,0,.752-1.279c.251-.7.276-.677.15.351a2.383,2.383,0,0,1-.577,1.429c-.476.376-.8.451-.8.176Z" transform="translate(-60.247 -61.243)" fill="#036"/>
          <path id="Path_47" data-name="Path 47" d="M55.791,75.078c-.577-.677-.752-1.078-.5-1.078.276,0,1.153,1.254.978,1.4C56.217,75.454,55.991,75.3,55.791,75.078Z" transform="translate(-46.127 -58.605)" fill="#036"/>
          <path id="Path_48" data-name="Path 48" d="M78.521,56.437c-.652-.727-.05-.852.6-.15.451.476.5.627.2.627A1.45,1.45,0,0,1,78.521,56.437Z" transform="translate(-57.625 -49.542)" fill="#036"/>
        </g>
        <g id="Group_14" data-name="Group 14" transform="translate(8.836)">
          <path id="Path_50" data-name="Path 50" d="M83.5,68.272a1.4,1.4,0,0,1,.476-.677,2.438,2.438,0,0,0,.652-1.128,6.64,6.64,0,0,1,1.529-2.056c1.755-1.7,1.78-1.755,2.633-5.165.752-3.034,1.379-4.187,3.209-5.967l1.028-.978.552.552.552.552L92.6,54.958l-1.529,1.58L90.445,59.3c-.351,1.529-.777,3.109-.953,3.56-.476,1.1-4.563,5.29-5.341,5.491C83.8,68.422,83.5,68.4,83.5,68.272Z" transform="translate(-69.083 -44.668)" fill="#4b4b4b"/>
          <path id="Path_51" data-name="Path 51" d="M89.643,80.826c.326-.4.627-.752.677-.8.025-.05.125-.025.226.05.2.2-.9,1.429-1.254,1.429C89.142,81.5,89.292,81.2,89.643,80.826Z" transform="translate(-71.942 -58.477)" fill="#4b4b4b"/>
          <path id="Path_52" data-name="Path 52" d="M66.81,47.094c-.426-.476-.376-.527,1.5-1.7C72.326,42.907,72.6,42.08,69.744,41a15.187,15.187,0,0,0-10.706-.3,16.215,16.215,0,0,1-2.006.6,5.113,5.113,0,0,1-1.279-.878l-1-.852,1.88-.852a17.817,17.817,0,0,1,14.718-.1c1.83.752,3.886,2.156,3.786,2.583-.226.9-5.391,5.616-6.168,5.616a1.076,1.076,0,0,0-.552.376C67.989,47.721,67.337,47.671,66.81,47.094Z" transform="translate(-54.75 -37.081)" fill="#4b4b4b"/>
        </g>
        <g id="Group_15" data-name="Group 15" transform="translate(13.725 10.741)">
          <path id="Path_53" data-name="Path 53" d="M76.811,94.551c-.4-.426-1.3-.8-3.234-1.279-3.987-1-4.438-1.254-6.87-3.786C64.9,87.655,64.5,87.079,64.5,86.452c0-1.078.6-1.529,1.254-.953a1.523,1.523,0,0,1,.5.878c0,.627,3.936,4.438,4.714,4.588,4.639.827,6.293,1.454,7.572,2.808.6.652.627.677.15,1.028a1.24,1.24,0,0,1-1.88-.251Z" transform="translate(-64.5 -71.834)" fill="#35a1da"/>
          <path id="Path_54" data-name="Path 54" d="M93.688,76.728A31.685,31.685,0,0,1,90.8,73.017L89.2,70.61l.577-.7c.326-.376.627-.652.652-.6.05.05.677,1.028,1.4,2.156a17.528,17.528,0,0,0,1.68,2.332c.677.577,1.229.025,2.056-2.131a12.026,12.026,0,0,0,.978-4.939,10.811,10.811,0,0,0-.376-4.588l-.527-1.755.9-.928a6.31,6.31,0,0,1,1.078-.953,12.19,12.19,0,0,1,.852,2.206A12.307,12.307,0,0,1,99.2,65.9c0,4.538-.928,7.6-3.285,10.832l-.928,1.279Z" transform="translate(-76.814 -58.5)" fill="#35a1da"/>
          <path id="Path_55" data-name="Path 55" d="M67.118,94.627c-.326-.351-.476-.627-.326-.627.3,0,1.2.953,1.028,1.128C67.77,95.2,67.444,94.978,67.118,94.627Z" transform="translate(-65.613 -76.198)" fill="#35a1da"/>
        </g>
        <g id="Group_16" data-name="Group 16" transform="translate(3.621 18.567)">
          <path id="Path_56" data-name="Path 56" d="M59.774,101.484A31.109,31.109,0,0,1,54.032,99.2c-.251-.176,2.181-2.407,3.736-3.435,2.532-1.7,2.708-1.78,3.285-1.254a1.788,1.788,0,0,1,.476.577,5.319,5.319,0,0,1-1.254.9c-1.3.777-1.78,1.63-1.279,2.231.677.827,5.015,1.153,7.973.6l1.6-.3,1,1,1,1.028-1.981.527A21.747,21.747,0,0,1,59.774,101.484Z" transform="translate(-49.168 -84.136)" fill="#ff7f00"/>
          <path id="Path_57" data-name="Path 57" d="M44.826,85.436l-.476-.652,1.053-.953c.978-.9,1.053-1.1,1.78-4.137.852-3.535,1.028-3.936,1.981-4.939.8-.852.878-.852,1.379-.075.4.6.4.652-.226,1.2-.527.451-.8,1.153-1.379,3.435a30.615,30.615,0,0,1-1.078,3.761,9.993,9.993,0,0,1-2.382,3.009c-.1,0-.376-.3-.652-.652Z" transform="translate(-44.35 -74.106)" fill="#ff7f00"/>
        </g>
      </g>
    </g>
  </g>
</svg>
